<?xml version="1.0" encoding="UTF-8"?>
<!DOCTYPE svg PUBLIC "-//W3C//DTD SVG 1.1//EN" "http://www.w3.org/Graphics/SVG/1.1/DTD/svg11.dtd">
<svg xmlns="http://www.w3.org/2000/svg" version="1.1" width="720px" height="720px" style="shape-rendering:geometricPrecision; text-rendering:geometricPrecision; image-rendering:optimizeQuality; fill-rule:evenodd; clip-rule:evenodd" xmlns:xlink="http://www.w3.org/1999/xlink">
<g><path style="opacity:1" fill="#fd0219" d="M 436.5,50.5 C 436.196,51.1499 435.863,51.8165 435.5,52.5C 454.572,60.3864 473.906,70.3864 493.5,82.5C 505.167,92.8333 516.833,103.167 528.5,113.5C 534.5,120.833 540.5,128.167 546.5,135.5C 562.226,158.287 574.226,182.954 582.5,209.5C 583.183,209.137 583.85,208.804 584.5,208.5C 587.041,217.041 589.041,225.708 590.5,234.5C 589.883,234.611 589.383,234.944 589,235.5C 559.42,204.419 529.254,173.752 498.5,143.5C 489.567,132.564 479.9,122.231 469.5,112.5C 468.311,111.571 466.978,111.238 465.5,111.5C 461.594,104.259 456.261,98.2594 449.5,93.5C 449.279,92.2652 448.612,91.2652 447.5,90.5C 444.232,89.513 440.898,89.1796 437.5,89.5C 436.833,89.5 436.167,89.5 435.5,89.5C 423.88,87.5209 411.88,86.8542 399.5,87.5C 372.833,87.5 346.167,87.5 319.5,87.5C 303.797,86.8493 288.464,87.5159 273.5,89.5C 271.517,89.1568 270.183,89.8235 269.5,91.5C 268.022,91.238 266.689,91.5713 265.5,92.5C 261.753,95.9077 258.42,99.5743 255.5,103.5C 254.167,103.5 253.5,104.167 253.5,105.5C 252.424,108.734 251.757,112.068 251.5,115.5C 249.537,122.424 248.87,129.757 249.5,137.5C 249.5,155.5 249.5,173.5 249.5,191.5C 247.51,215.143 246.843,239.143 247.5,263.5C 247.5,288.167 247.5,312.833 247.5,337.5C 247.5,352.833 247.5,368.167 247.5,383.5C 246.17,389.798 245.503,396.465 245.5,403.5C 245.503,410.535 246.17,417.202 247.5,423.5C 246.964,426.698 247.631,429.365 249.5,431.5C 250.45,436.067 252.45,440.067 255.5,443.5C 255.5,444.833 256.167,445.5 257.5,445.5C 259.5,446.833 261.5,448.167 263.5,449.5C 263.5,450.833 263.5,452.167 263.5,453.5C 268.005,454.331 271.005,456.998 272.5,461.5C 286.392,475.392 300.392,489.392 314.5,503.5C 315.386,504.325 315.719,505.325 315.5,506.5C 281.403,501.607 250.403,489.273 222.5,469.5C 222.611,468.883 222.944,468.383 223.5,468C 196.851,448.52 174.518,425.02 156.5,397.5C 153.167,391.5 149.833,385.5 146.5,379.5C 145.817,379.863 145.15,380.196 144.5,380.5C 112.445,314.309 110.611,246.975 139,178.5C 143.294,170.044 147.794,161.71 152.5,153.5C 154.143,153.52 155.476,152.853 156.5,151.5C 161.833,143.5 167.167,135.5 172.5,127.5C 180.865,119.736 188.532,111.403 195.5,102.5C 205.135,94.0194 215.135,86.0194 225.5,78.5C 235.183,72.6575 245.183,67.3242 255.5,62.5C 256.612,61.7348 257.279,60.7348 257.5,59.5C 269.073,53.1888 281.406,48.3554 294.5,45C 342.581,32.2311 389.915,34.0644 436.5,50.5 Z"/></g>
<g><path style="opacity:0.331" fill="#ec2510" d="M 257.5,59.5 C 257.279,60.7348 256.612,61.7348 255.5,62.5C 245.183,67.3242 235.183,72.6575 225.5,78.5C 215.135,86.0194 205.135,94.0194 195.5,102.5C 188.532,111.403 180.865,119.736 172.5,127.5C 167.167,135.5 161.833,143.5 156.5,151.5C 155.476,152.853 154.143,153.52 152.5,153.5C 172.896,119.566 199.896,92.0655 233.5,71C 239.52,67.6337 245.52,64.3004 251.5,61C 253.518,60.4954 255.518,59.9954 257.5,59.5 Z"/></g>
<g><path style="opacity:1" fill="#b06675" d="M 319.5,87.5 C 320.167,88.1667 320.833,88.8333 321.5,89.5C 305.5,89.5 289.5,89.5 273.5,89.5C 288.464,87.5159 303.797,86.8493 319.5,87.5 Z"/></g>
<g><path style="opacity:1" fill="#cf4656" d="M 319.5,87.5 C 346.167,87.5 372.833,87.5 399.5,87.5C 398.167,88.1667 396.833,88.8333 395.5,89.5C 383.5,89.5 371.5,89.5 359.5,89.5C 349.5,89.5 339.5,89.5 329.5,89.5C 326.833,89.5 324.167,89.5 321.5,89.5C 320.833,88.8333 320.167,88.1667 319.5,87.5 Z"/></g>
<g><path style="opacity:1" fill="#e73042" d="M 399.5,87.5 C 411.88,86.8542 423.88,87.5209 435.5,89.5C 422.167,89.5 408.833,89.5 395.5,89.5C 396.833,88.8333 398.167,88.1667 399.5,87.5 Z"/></g>
<g><path style="opacity:1" fill="#14f7fd" d="M 273.5,89.5 C 289.5,89.5 305.5,89.5 321.5,89.5C 324.167,89.5 326.833,89.5 329.5,89.5C 338.986,90.4938 348.652,90.8271 358.5,90.5C 358.5,96.1667 358.5,101.833 358.5,107.5C 347.779,106.858 337.446,107.525 327.5,109.5C 327.5,112.833 327.5,116.167 327.5,119.5C 337.111,121.474 347.111,122.141 357.5,121.5C 357.833,121.5 358.167,121.5 358.5,121.5C 358.5,127.5 358.5,133.5 358.5,139.5C 358.167,139.5 357.833,139.5 357.5,139.5C 322.167,139.5 286.833,139.5 251.5,139.5C 251.5,138.833 251.5,138.167 251.5,137.5C 251.5,130.167 251.5,122.833 251.5,115.5C 251.757,112.068 252.424,108.734 253.5,105.5C 254.833,105.5 255.5,104.833 255.5,103.5C 258.42,99.5743 261.753,95.9077 265.5,92.5C 266.689,91.5713 268.022,91.238 269.5,91.5C 271.483,91.8432 272.817,91.1765 273.5,89.5 Z"/></g>
<g><path style="opacity:1" fill="#8f939e" d="M 273.5,89.5 C 272.817,91.1765 271.483,91.8432 269.5,91.5C 270.183,89.8235 271.517,89.1568 273.5,89.5 Z"/></g>
<g><path style="opacity:1" fill="#5aa9b0" d="M 359.5,89.5 C 371.5,89.5 383.5,89.5 395.5,89.5C 408.833,89.5 422.167,89.5 435.5,89.5C 436.167,89.5 436.833,89.5 437.5,89.5C 437.5,90.1667 437.5,90.8333 437.5,91.5C 417.497,91.6666 397.497,91.5 377.5,91C 371.319,90.8276 365.319,90.3276 359.5,89.5 Z"/></g>
<g><path style="opacity:1" fill="#d73d47" d="M 437.5,89.5 C 440.898,89.1796 444.232,89.513 447.5,90.5C 448.612,91.2652 449.279,92.2652 449.5,93.5C 445.63,92.201 441.63,91.5343 437.5,91.5C 437.5,90.8333 437.5,90.1667 437.5,89.5 Z"/></g>
<g><path style="opacity:1" fill="#05dae0" d="M 329.5,89.5 C 339.5,89.5 349.5,89.5 359.5,89.5C 365.319,90.3276 371.319,90.8276 377.5,91C 397.497,91.5 417.497,91.6666 437.5,91.5C 441.63,91.5343 445.63,92.201 449.5,93.5C 456.261,98.2594 461.594,104.259 465.5,111.5C 465.5,114.167 465.5,116.833 465.5,119.5C 465.5,126.167 465.5,132.833 465.5,139.5C 444.833,139.5 424.167,139.5 403.5,139.5C 388.5,139.5 373.5,139.5 358.5,139.5C 358.5,133.5 358.5,127.5 358.5,121.5C 368.833,121.5 379.167,121.5 389.5,121.5C 389.5,117.5 389.5,113.5 389.5,109.5C 379.554,107.525 369.221,106.858 358.5,107.5C 358.5,101.833 358.5,96.1667 358.5,90.5C 348.652,90.8271 338.986,90.4938 329.5,89.5 Z"/></g>
<g><path style="opacity:1" fill="#b15e70" d="M 255.5,103.5 C 255.5,104.833 254.833,105.5 253.5,105.5C 253.5,104.167 254.167,103.5 255.5,103.5 Z"/></g>
<g><path style="opacity:1" fill="#0fa7ea" d="M 358.5,107.5 C 369.221,106.858 379.554,107.525 389.5,109.5C 388.833,109.5 388.167,109.5 387.5,109.5C 377.833,109.5 368.167,109.5 358.5,109.5C 348.167,109.5 337.833,109.5 327.5,109.5C 337.446,107.525 347.779,106.858 358.5,107.5 Z"/></g>
<g><path style="opacity:1" fill="#0388f8" d="M 327.5,109.5 C 337.833,109.5 348.167,109.5 358.5,109.5C 358.5,112.833 358.5,116.167 358.5,119.5C 368.167,119.5 377.833,119.5 387.5,119.5C 387.5,116.167 387.5,112.833 387.5,109.5C 388.167,109.5 388.833,109.5 389.5,109.5C 389.5,113.5 389.5,117.5 389.5,121.5C 379.167,121.5 368.833,121.5 358.5,121.5C 358.167,121.5 357.833,121.5 357.5,121.5C 347.889,119.526 337.889,118.859 327.5,119.5C 327.5,116.167 327.5,112.833 327.5,109.5 Z"/></g>
<g><path style="opacity:1" fill="#005fd7" d="M 358.5,109.5 C 368.167,109.5 377.833,109.5 387.5,109.5C 387.5,112.833 387.5,116.167 387.5,119.5C 377.833,119.5 368.167,119.5 358.5,119.5C 358.5,116.167 358.5,112.833 358.5,109.5 Z"/></g>
<g><path style="opacity:1" fill="#b40009" d="M 465.5,111.5 C 466.978,111.238 468.311,111.571 469.5,112.5C 479.9,122.231 489.567,132.564 498.5,143.5C 529.254,173.752 559.42,204.419 589,235.5C 589.383,234.944 589.883,234.611 590.5,234.5C 590.5,235.833 590.5,237.167 590.5,238.5C 589.848,239.449 589.514,240.615 589.5,242C 593.652,284.342 588.486,325.509 574,365.5C 565.833,383.185 556.167,399.851 545,415.5C 543.743,417.746 541.91,419.079 539.5,419.5C 539.657,420.873 539.49,422.207 539,423.5C 528.167,433.667 517.667,444.167 507.5,455C 499.617,460.435 491.95,466.101 484.5,472C 477.761,475.702 470.761,478.869 463.5,481.5C 463.719,482.675 463.386,483.675 462.5,484.5C 448.021,491.053 433.021,496.553 417.5,501C 399.067,504.752 380.401,507.252 361.5,508.5C 358.694,509.168 356.028,509.834 353.5,510.5C 341.022,511.047 328.689,510.214 316.5,508C 315.944,507.617 315.611,507.117 315.5,506.5C 315.719,505.325 315.386,504.325 314.5,503.5C 300.392,489.392 286.392,475.392 272.5,461.5C 271.005,456.998 268.005,454.331 263.5,453.5C 263.5,452.167 263.5,450.833 263.5,449.5C 265.282,450.72 267.282,451.386 269.5,451.5C 269.5,452.833 270.167,453.5 271.5,453.5C 287.132,455.485 303.132,456.151 319.5,455.5C 330.833,455.5 342.167,455.5 353.5,455.5C 381.853,456.158 409.853,455.492 437.5,453.5C 452.428,451.238 460.428,442.572 461.5,427.5C 463.45,422.265 464.117,416.598 463.5,410.5C 464.533,360.002 465.199,309.335 465.5,258.5C 465.5,219.5 465.5,180.5 465.5,141.5C 466.822,138.232 467.489,134.565 467.5,130.5C 467.489,126.435 466.822,122.768 465.5,119.5C 465.5,116.833 465.5,114.167 465.5,111.5 Z"/></g>
<g><path style="opacity:1" fill="#09c2fb" d="M 327.5,119.5 C 337.889,118.859 347.889,119.526 357.5,121.5C 347.111,122.141 337.111,121.474 327.5,119.5 Z"/></g>
<g><path style="opacity:1" fill="#a67a88" d="M 251.5,115.5 C 251.5,122.833 251.5,130.167 251.5,137.5C 250.833,137.5 250.167,137.5 249.5,137.5C 248.87,129.757 249.537,122.424 251.5,115.5 Z"/></g>
<g><path style="opacity:1" fill="#8f8184" d="M 465.5,119.5 C 466.822,122.768 467.489,126.435 467.5,130.5C 467.489,134.565 466.822,138.232 465.5,141.5C 465.5,140.833 465.5,140.167 465.5,139.5C 465.5,132.833 465.5,126.167 465.5,119.5 Z"/></g>
<g><path style="opacity:1" fill="#fefefe" d="M 251.5,139.5 C 286.833,139.5 322.167,139.5 357.5,139.5C 357.5,140.167 357.5,140.833 357.5,141.5C 357.5,152.833 357.5,164.167 357.5,175.5C 337.804,174.846 318.471,175.512 299.5,177.5C 293.755,179.551 288.755,182.885 284.5,187.5C 282.917,189.99 281.917,192.657 281.5,195.5C 280.167,212.487 279.5,229.82 279.5,247.5C 279.5,265.18 280.167,282.513 281.5,299.5C 281.483,303.117 282.483,306.45 284.5,309.5C 288.35,312.261 292.017,315.261 295.5,318.5C 309.5,319.167 323.5,319.833 337.5,320.5C 343.299,327.829 349.299,334.829 355.5,341.5C 355.5,355.5 355.5,369.5 355.5,383.5C 320.167,383.5 284.833,383.5 249.5,383.5C 249.5,359.5 249.5,335.5 249.5,311.5C 249.5,298.833 249.5,286.167 249.5,273.5C 250.702,242.34 251.369,211.006 251.5,179.5C 251.5,166.167 251.5,152.833 251.5,139.5 Z"/></g>
<g><path style="opacity:1" fill="#ccf3d5" d="M 357.5,139.5 C 357.833,139.5 358.167,139.5 358.5,139.5C 373.5,139.5 388.5,139.5 403.5,139.5C 403.5,140.167 403.5,140.833 403.5,141.5C 388.167,141.5 372.833,141.5 357.5,141.5C 357.5,140.833 357.5,140.167 357.5,139.5 Z"/></g>
<g><path style="opacity:1" fill="#85efdf" d="M 403.5,139.5 C 424.167,139.5 444.833,139.5 465.5,139.5C 465.5,140.167 465.5,140.833 465.5,141.5C 465.167,141.5 464.833,141.5 464.5,141.5C 444.167,141.5 423.833,141.5 403.5,141.5C 403.5,140.833 403.5,140.167 403.5,139.5 Z"/></g>
<g><path style="opacity:1" fill="#fdf4c9" d="M 357.5,141.5 C 372.833,141.5 388.167,141.5 403.5,141.5C 423.833,141.5 444.167,141.5 464.5,141.5C 463.81,190.83 463.477,240.164 463.5,289.5C 463.5,300.833 463.5,312.167 463.5,323.5C 461.512,343.806 460.845,364.473 461.5,385.5C 452.833,385.5 444.167,385.5 435.5,385.5C 438.641,384.679 441.975,384.179 445.5,384C 415.502,383.5 385.502,383.333 355.5,383.5C 355.5,369.5 355.5,355.5 355.5,341.5C 362.924,336.078 368.924,329.412 373.5,321.5C 387.873,322.149 401.873,321.482 415.5,319.5C 416.978,319.762 418.311,319.429 419.5,318.5C 423.167,314.833 426.833,311.167 430.5,307.5C 431.32,304.699 432.32,302.032 433.5,299.5C 435.488,279.861 436.155,259.861 435.5,239.5C 436.15,224.462 435.483,209.795 433.5,195.5C 432.167,192.167 430.833,188.833 429.5,185.5C 424.505,182.675 419.172,180.342 413.5,178.5C 394.845,177.5 376.179,177.167 357.5,177.5C 338.167,177.5 318.833,177.5 299.5,177.5C 318.471,175.512 337.804,174.846 357.5,175.5C 357.5,164.167 357.5,152.833 357.5,141.5 Z"/></g>
<g><path style="opacity:0.48" fill="#eb2510" d="M 436.5,50.5 C 471.095,63.4071 501.595,83.0738 528,109.5C 534.667,117.5 541.333,125.5 548,133.5C 563.948,156.729 576.115,181.729 584.5,208.5C 583.85,208.804 583.183,209.137 582.5,209.5C 574.226,182.954 562.226,158.287 546.5,135.5C 540.5,128.167 534.5,120.833 528.5,113.5C 516.833,103.167 505.167,92.8333 493.5,82.5C 473.906,70.3864 454.572,60.3864 435.5,52.5C 435.863,51.8165 436.196,51.1499 436.5,50.5 Z"/></g>
<g><path style="opacity:1" fill="#fdeb93" d="M 299.5,177.5 C 318.833,177.5 338.167,177.5 357.5,177.5C 357.5,190.167 357.5,202.833 357.5,215.5C 356.71,214.391 356.21,213.058 356,211.5C 355.5,236.831 355.333,262.164 355.5,287.5C 355.5,305.5 355.5,323.5 355.5,341.5C 349.299,334.829 343.299,327.829 337.5,320.5C 323.5,319.833 309.5,319.167 295.5,318.5C 292.017,315.261 288.35,312.261 284.5,309.5C 282.483,306.45 281.483,303.117 281.5,299.5C 281.5,264.833 281.5,230.167 281.5,195.5C 281.917,192.657 282.917,189.99 284.5,187.5C 288.755,182.885 293.755,179.551 299.5,177.5 Z"/></g>
<g><path style="opacity:1" fill="#fdda06" d="M 357.5,177.5 C 376.179,177.167 394.845,177.5 413.5,178.5C 419.172,180.342 424.505,182.675 429.5,185.5C 430.833,188.833 432.167,192.167 433.5,195.5C 433.5,210.167 433.5,224.833 433.5,239.5C 433.5,259.5 433.5,279.5 433.5,299.5C 432.32,302.032 431.32,304.699 430.5,307.5C 426.833,311.167 423.167,314.833 419.5,318.5C 418.311,319.429 416.978,319.762 415.5,319.5C 401.127,318.851 387.127,319.518 373.5,321.5C 368.924,329.412 362.924,336.078 355.5,341.5C 355.5,323.5 355.5,305.5 355.5,287.5C 356.327,292.651 356.827,297.984 357,303.5C 357.5,274.169 357.667,244.835 357.5,215.5C 357.5,202.833 357.5,190.167 357.5,177.5 Z"/></g>
<g><path style="opacity:1" fill="#eb9715" d="M 385.5,197.5 C 382.833,197.5 380.167,197.5 377.5,197.5C 378.334,196.252 379.667,195.585 381.5,195.5C 383.333,195.585 384.666,196.252 385.5,197.5 Z"/></g>
<g><path style="opacity:1" fill="#fc111d" d="M 349.5,209.5 C 349.5,215.5 349.5,221.5 349.5,227.5C 349.799,229.604 349.466,231.604 348.5,233.5C 345.833,236.167 343.167,238.833 340.5,241.5C 339.667,259.824 339.167,278.158 339,296.5C 338.241,298.063 337.074,299.063 335.5,299.5C 332.833,299.5 330.167,299.5 327.5,299.5C 325.824,298.817 325.157,297.483 325.5,295.5C 325.667,277.497 325.5,259.497 325,241.5C 324.617,240.944 324.117,240.611 323.5,240.5C 320.462,237.797 317.795,234.797 315.5,231.5C 315.5,223.5 315.5,215.5 315.5,207.5C 317.799,200.208 322.799,196.208 330.5,195.5C 341.115,194.619 347.448,199.286 349.5,209.5 Z"/></g>
<g><path style="opacity:1" fill="#b71409" d="M 371.5,196.5 C 370.86,206.558 371.527,216.225 373.5,225.5C 374.833,225.5 376.167,225.5 377.5,225.5C 377.5,216.167 377.5,206.833 377.5,197.5C 380.167,197.5 382.833,197.5 385.5,197.5C 384.861,207.227 385.528,216.56 387.5,225.5C 388.833,225.5 390.167,225.5 391.5,225.5C 391.5,216.167 391.5,206.833 391.5,197.5C 394.167,197.5 396.833,197.5 399.5,197.5C 399.832,208.853 399.499,220.186 398.5,231.5C 396.508,235.821 393.508,239.154 389.5,241.5C 387.513,259.136 386.847,277.136 387.5,295.5C 387.5,296.833 387.5,298.167 387.5,299.5C 385.11,299.855 382.777,300.522 380.5,301.5C 377.977,300.982 375.977,299.648 374.5,297.5C 373.833,278.833 373.167,260.167 372.5,241.5C 367.461,238.077 364.461,233.41 363.5,227.5C 363.334,217.494 363.5,207.494 364,197.5C 366.381,196.565 368.881,196.232 371.5,196.5 Z"/></g>
<g><path style="opacity:1" fill="#d19100" d="M 371.5,196.5 C 372.215,206.037 372.882,215.704 373.5,225.5C 371.527,216.225 370.86,206.558 371.5,196.5 Z"/></g>
<g><path style="opacity:1" fill="#fbeb79" d="M 433.5,195.5 C 435.483,209.795 436.15,224.462 435.5,239.5C 434.833,239.5 434.167,239.5 433.5,239.5C 433.5,224.833 433.5,210.167 433.5,195.5 Z"/></g>
<g><path style="opacity:1" fill="#f57959" d="M 349.5,209.5 C 350.222,209.918 350.722,210.584 351,211.5C 351.167,214.167 351.333,216.833 351.5,219.5C 351.478,222.59 350.812,225.257 349.5,227.5C 349.5,221.5 349.5,215.5 349.5,209.5 Z"/></g>
<g><path style="opacity:1" fill="#e3a405" d="M 371.5,196.5 C 368.881,196.232 366.381,196.565 364,197.5C 363.5,207.494 363.334,217.494 363.5,227.5C 362.341,217.342 362.175,207.008 363,196.5C 365.937,195.183 368.77,195.183 371.5,196.5 Z"/></g>
<g><path style="opacity:1" fill="#e39308" d="M 385.5,197.5 C 387.472,206.44 388.139,215.773 387.5,225.5C 385.528,216.56 384.861,207.227 385.5,197.5 Z"/></g>
<g><path style="opacity:1" fill="#df7b84" d="M 249.5,137.5 C 250.167,137.5 250.833,137.5 251.5,137.5C 251.5,138.167 251.5,138.833 251.5,139.5C 251.5,152.833 251.5,166.167 251.5,179.5C 250.833,192.833 250.167,206.167 249.5,219.5C 249.5,210.167 249.5,200.833 249.5,191.5C 249.5,173.5 249.5,155.5 249.5,137.5 Z"/></g>
<g><path style="opacity:1" fill="#db8f7e" d="M 464.5,141.5 C 464.833,141.5 465.167,141.5 465.5,141.5C 465.5,180.5 465.5,219.5 465.5,258.5C 464.833,268.833 464.167,279.167 463.5,289.5C 463.477,240.164 463.81,190.83 464.5,141.5 Z"/></g>
<g><path style="opacity:1" fill="#f62b3d" d="M 249.5,191.5 C 249.5,200.833 249.5,210.167 249.5,219.5C 249.5,231.833 249.5,244.167 249.5,256.5C 248.833,258.833 248.167,261.167 247.5,263.5C 246.843,239.143 247.51,215.143 249.5,191.5 Z"/></g>
<g><path style="opacity:1" fill="#f2a571" d="M 315.5,207.5 C 315.5,215.5 315.5,223.5 315.5,231.5C 314.18,228.572 313.514,225.239 313.5,221.5C 313.3,216.563 313.967,211.896 315.5,207.5 Z"/></g>
<g><path style="opacity:1" fill="#fdf1b2" d="M 281.5,195.5 C 281.5,230.167 281.5,264.833 281.5,299.5C 280.167,282.513 279.5,265.18 279.5,247.5C 279.5,229.82 280.167,212.487 281.5,195.5 Z"/></g>
<g><path style="opacity:1" fill="#e8babf" d="M 251.5,179.5 C 251.369,211.006 250.702,242.34 249.5,273.5C 249.5,267.833 249.5,262.167 249.5,256.5C 249.5,244.167 249.5,231.833 249.5,219.5C 250.167,206.167 250.833,192.833 251.5,179.5 Z"/></g>
<g><path style="opacity:1" fill="#faeea4" d="M 433.5,239.5 C 434.167,239.5 434.833,239.5 435.5,239.5C 436.155,259.861 435.488,279.861 433.5,299.5C 433.5,279.5 433.5,259.5 433.5,239.5 Z"/></g>
<g><path style="opacity:1" fill="#de6e11" d="M 389.5,241.5 C 390.153,259.864 389.487,277.864 387.5,295.5C 386.847,277.136 387.513,259.136 389.5,241.5 Z"/></g>
<g><path style="opacity:1" fill="#f06d4d" d="M 323.5,240.5 C 324.117,240.611 324.617,240.944 325,241.5C 325.5,259.497 325.667,277.497 325.5,295.5C 323.513,277.53 322.846,259.197 323.5,240.5 Z"/></g>
<g><path style="opacity:1" fill="#f89368" d="M 327.5,299.5 C 330.167,299.5 332.833,299.5 335.5,299.5C 334.666,300.748 333.333,301.415 331.5,301.5C 329.667,301.415 328.334,300.748 327.5,299.5 Z"/></g>
<g><path style="opacity:1" fill="#fae24c" d="M 357.5,215.5 C 357.667,244.835 357.5,274.169 357,303.5C 356.827,297.984 356.327,292.651 355.5,287.5C 355.333,262.164 355.5,236.831 356,211.5C 356.21,213.058 356.71,214.391 357.5,215.5 Z"/></g>
<g><path style="opacity:1" fill="#e3515d" d="M 249.5,256.5 C 249.5,262.167 249.5,267.833 249.5,273.5C 249.5,286.167 249.5,298.833 249.5,311.5C 248.833,320.167 248.167,328.833 247.5,337.5C 247.5,312.833 247.5,288.167 247.5,263.5C 248.167,261.167 248.833,258.833 249.5,256.5 Z"/></g>
<g><path style="opacity:1" fill="#fcec76" d="M 415.5,319.5 C 401.873,321.482 387.873,322.149 373.5,321.5C 387.127,319.518 401.127,318.851 415.5,319.5 Z"/></g>
<g><path style="opacity:1" fill="#f29ea6" d="M 249.5,311.5 C 249.5,335.5 249.5,359.5 249.5,383.5C 248.833,383.5 248.167,383.5 247.5,383.5C 247.5,368.167 247.5,352.833 247.5,337.5C 248.167,328.833 248.833,320.167 249.5,311.5 Z"/></g>
<g><path style="opacity:1" fill="#edb09b" d="M 463.5,323.5 C 463.5,344.167 463.5,364.833 463.5,385.5C 462.833,385.5 462.167,385.5 461.5,385.5C 460.845,364.473 461.512,343.806 463.5,323.5 Z"/></g>
<g><path style="opacity:1" fill="#cf4243" d="M 465.5,258.5 C 465.199,309.335 464.533,360.002 463.5,410.5C 463.5,402.167 463.5,393.833 463.5,385.5C 463.5,364.833 463.5,344.167 463.5,323.5C 463.5,312.167 463.5,300.833 463.5,289.5C 464.167,279.167 464.833,268.833 465.5,258.5 Z"/></g>
<g><path style="opacity:1" fill="#51e8ec" d="M 247.5,383.5 C 248.167,383.5 248.833,383.5 249.5,383.5C 284.833,383.5 320.167,383.5 355.5,383.5C 355.5,384.167 355.5,384.833 355.5,385.5C 320.167,385.5 284.833,385.5 249.5,385.5C 249.5,400.833 249.5,416.167 249.5,431.5C 247.631,429.365 246.964,426.698 247.5,423.5C 247.5,410.167 247.5,396.833 247.5,383.5 Z"/></g>
<g><path style="opacity:1" fill="#c9eac9" d="M 355.5,383.5 C 385.502,383.333 415.502,383.5 445.5,384C 441.975,384.179 438.641,384.679 435.5,385.5C 408.833,385.5 382.167,385.5 355.5,385.5C 355.5,384.833 355.5,384.167 355.5,383.5 Z"/></g>
<g><path style="opacity:1" fill="#03f7fe" d="M 355.5,385.5 C 355.5,388.833 355.5,392.167 355.5,395.5C 345.238,395.888 337.405,400.555 332,409.5C 329.627,425.088 335.46,436.421 349.5,443.5C 350.568,444.434 351.901,444.768 353.5,444.5C 353.5,446.833 353.5,449.167 353.5,451.5C 325.5,451.5 297.5,451.5 269.5,451.5C 267.282,451.386 265.282,450.72 263.5,449.5C 261.5,448.167 259.5,446.833 257.5,445.5C 256.167,445.5 255.5,444.833 255.5,443.5C 252.45,440.067 250.45,436.067 249.5,431.5C 249.5,416.167 249.5,400.833 249.5,385.5C 284.833,385.5 320.167,385.5 355.5,385.5 Z"/></g>
<g><path style="opacity:1" fill="#09dae0" d="M 355.5,385.5 C 382.167,385.5 408.833,385.5 435.5,385.5C 444.167,385.5 452.833,385.5 461.5,385.5C 461.5,399.5 461.5,413.5 461.5,427.5C 460.428,442.572 452.428,451.238 437.5,453.5C 409.542,454.108 381.542,454.108 353.5,453.5C 342.167,453.5 330.833,453.5 319.5,453.5C 303.5,453.5 287.5,453.5 271.5,453.5C 270.167,453.5 269.5,452.833 269.5,451.5C 297.5,451.5 325.5,451.5 353.5,451.5C 353.5,449.167 353.5,446.833 353.5,444.5C 351.901,444.768 350.568,444.434 349.5,443.5C 353.971,444.089 357.971,443.423 361.5,441.5C 365.011,440.356 368.344,438.689 371.5,436.5C 373.299,433.197 375.299,430.197 377.5,427.5C 378.812,425.257 379.478,422.59 379.5,419.5C 379.469,415.232 378.469,411.232 376.5,407.5C 375.735,406.388 374.735,405.721 373.5,405.5C 371.331,401.326 367.998,398.66 363.5,397.5C 361.365,395.631 358.698,394.964 355.5,395.5C 355.5,392.167 355.5,388.833 355.5,385.5 Z"/></g>
<g><path style="opacity:1" fill="#0489fb" d="M 355.5,395.5 C 358.698,394.964 361.365,395.631 363.5,397.5C 360.833,397.5 358.167,397.5 355.5,397.5C 355.5,412.167 355.5,426.833 355.5,441.5C 357.5,441.5 359.5,441.5 361.5,441.5C 357.971,443.423 353.971,444.089 349.5,443.5C 335.46,436.421 329.627,425.088 332,409.5C 337.405,400.555 345.238,395.888 355.5,395.5 Z"/></g>
<g><path style="opacity:1" fill="#0160d7" d="M 363.5,397.5 C 367.998,398.66 371.331,401.326 373.5,405.5C 373.5,406.833 373.5,408.167 373.5,409.5C 374.5,409.5 375.5,409.5 376.5,409.5C 377.307,415.464 377.64,421.464 377.5,427.5C 375.299,430.197 373.299,433.197 371.5,436.5C 368.344,438.689 365.011,440.356 361.5,441.5C 359.5,441.5 357.5,441.5 355.5,441.5C 355.5,426.833 355.5,412.167 355.5,397.5C 358.167,397.5 360.833,397.5 363.5,397.5 Z"/></g>
<g><path style="opacity:0.22" fill="#eb2610" d="M 222.5,469.5 C 188.543,446.559 162.543,416.893 144.5,380.5C 145.15,380.196 145.817,379.863 146.5,379.5C 149.833,385.5 153.167,391.5 156.5,397.5C 174.518,425.02 196.851,448.52 223.5,468C 222.944,468.383 222.611,468.883 222.5,469.5 Z"/></g>
<g><path style="opacity:0.886" fill="#c82309" d="M 590.5,238.5 C 601.629,327.38 573.295,400.88 505.5,459C 460.828,494.057 410.162,511.224 353.5,510.5C 356.028,509.834 358.694,509.168 361.5,508.5C 380.401,507.252 399.067,504.752 417.5,501C 433.021,496.553 448.021,491.053 462.5,484.5C 463.386,483.675 463.719,482.675 463.5,481.5C 470.761,478.869 477.761,475.702 484.5,472C 491.95,466.101 499.617,460.435 507.5,455C 517.667,444.167 528.167,433.667 539,423.5C 539.49,422.207 539.657,420.873 539.5,419.5C 541.91,419.079 543.743,417.746 545,415.5C 556.167,399.851 565.833,383.185 574,365.5C 588.486,325.509 593.652,284.342 589.5,242C 589.514,240.615 589.848,239.449 590.5,238.5 Z"/></g>
<g><path style="opacity:1" fill="#6aa4a6" d="M 461.5,385.5 C 462.167,385.5 462.833,385.5 463.5,385.5C 463.5,393.833 463.5,402.167 463.5,410.5C 464.117,416.598 463.45,422.265 461.5,427.5C 461.5,413.5 461.5,399.5 461.5,385.5 Z"/></g>
<g><path style="opacity:1" fill="#ce5465" d="M 247.5,383.5 C 247.5,396.833 247.5,410.167 247.5,423.5C 246.17,417.202 245.503,410.535 245.5,403.5C 245.503,396.465 246.17,389.798 247.5,383.5 Z"/></g>
<g><path style="opacity:1" fill="#1196e2" d="M 373.5,405.5 C 374.735,405.721 375.735,406.388 376.5,407.5C 378.469,411.232 379.469,415.232 379.5,419.5C 379.478,422.59 378.812,425.257 377.5,427.5C 377.64,421.464 377.307,415.464 376.5,409.5C 375.5,409.5 374.5,409.5 373.5,409.5C 373.5,408.167 373.5,406.833 373.5,405.5 Z"/></g>
<g><path style="opacity:1" fill="#a86a77" d="M 255.5,443.5 C 256.833,443.5 257.5,444.167 257.5,445.5C 257.5,444.167 256.833,443.5 255.5,443.5 Z"/></g>
<g><path style="opacity:1" fill="#95292e" d="M 271.5,453.5 C 287.5,453.5 303.5,453.5 319.5,453.5C 319.5,454.167 319.5,454.833 319.5,455.5C 303.132,456.151 287.132,455.485 271.5,453.5 Z"/></g>
<g><path style="opacity:1" fill="#7e5057" d="M 319.5,453.5 C 330.833,453.5 342.167,453.5 353.5,453.5C 353.5,454.167 353.5,454.833 353.5,455.5C 342.167,455.5 330.833,455.5 319.5,455.5C 319.5,454.833 319.5,454.167 319.5,453.5 Z"/></g>
<g><path style="opacity:1" fill="#42a2a6" d="M 353.5,453.5 C 381.542,454.108 409.542,454.108 437.5,453.5C 409.853,455.492 381.853,456.158 353.5,455.5C 353.5,454.833 353.5,454.167 353.5,453.5 Z"/></g>
<g><path style="opacity:0.795" fill="#ec4624" d="M 194.5,542.5 C 189.5,542.5 184.5,542.5 179.5,542.5C 179.5,541.167 179.5,539.833 179.5,538.5C 183.198,536.494 187.198,535.994 191.5,537C 193.607,538.264 194.607,540.097 194.5,542.5 Z"/></g>
<g><path style="opacity:0.762" fill="#e94723" d="M 254.5,540.5 C 250.265,541.436 245.931,541.769 241.5,541.5C 241.5,540.5 241.5,539.5 241.5,538.5C 241.918,537.778 242.584,537.278 243.5,537C 246.833,536.333 250.167,536.333 253.5,537C 254.337,538.011 254.67,539.178 254.5,540.5 Z"/></g>
<g><path style="opacity:0.644" fill="#ec4625" d="M 360.5,555.5 C 359.5,555.5 358.5,555.5 357.5,555.5C 357.479,552.465 356.146,550.132 353.5,548.5C 343.057,541.802 331.724,539.802 319.5,542.5C 317.01,544.083 314.343,545.083 311.5,545.5C 311.721,544.265 312.388,543.265 313.5,542.5C 312.757,541.818 312.091,541.151 311.5,540.5C 313.583,539.027 315.916,537.86 318.5,537C 326.5,536.333 334.5,536.333 342.5,537C 352.097,539.762 358.097,545.929 360.5,555.5 Z"/></g>
<g><path style="opacity:1" fill="#f14429" d="M 167.5,541.5 C 149.674,542.497 131.674,542.83 113.5,542.5C 113.5,542.167 113.5,541.833 113.5,541.5C 113.5,540.5 113.5,539.5 113.5,538.5C 114.289,538.217 114.956,537.717 115.5,537C 131.833,536.333 148.167,536.333 164.5,537C 165.883,538.271 166.883,539.771 167.5,541.5 Z"/></g>
<g><path style="opacity:1" fill="#ef462a" d="M 460.5,542.5 C 442.167,542.5 423.833,542.5 405.5,542.5C 405.158,541.662 404.492,541.328 403.5,541.5C 401.517,541.157 400.183,541.824 399.5,543.5C 398.5,543.5 397.5,543.5 396.5,543.5C 397.031,541.376 398.365,539.876 400.5,539C 402.952,538.71 405.285,538.044 407.5,537C 424.167,536.333 440.833,536.333 457.5,537C 459.607,538.264 460.607,540.097 460.5,542.5 Z"/></g>
<g><path style="opacity:1" fill="#ef4526" d="M 690.5,567.5 C 689.624,567.631 688.957,567.298 688.5,566.5C 686.403,561.311 684.07,556.311 681.5,551.5C 680.022,551.762 678.689,551.429 677.5,550.5C 675.924,548.423 673.924,546.923 671.5,546C 668.419,545.473 665.419,544.64 662.5,543.5C 651.525,542.568 640.525,542.234 629.5,542.5C 629.158,541.662 628.492,541.328 627.5,541.5C 625.517,541.157 624.183,541.824 623.5,543.5C 622.5,543.5 621.5,543.5 620.5,543.5C 621.031,541.376 622.365,539.876 624.5,539C 639.55,535.692 654.55,535.692 669.5,539C 674.54,542.326 679.373,545.826 684,549.5C 685.333,552.167 686.667,554.833 688,557.5C 688.661,560.946 689.495,564.279 690.5,567.5 Z"/></g>
<g><path style="opacity:0.999" fill="#fa0d05" d="M 360.5,555.5 C 362.251,558.929 362.751,562.595 362,566.5C 360.416,567.861 358.582,568.528 356.5,568.5C 353.609,567.597 350.609,567.264 347.5,567.5C 348.019,560.026 344.685,555.36 337.5,553.5C 335.952,552.206 333.952,551.539 331.5,551.5C 328.085,551.957 324.752,552.623 321.5,553.5C 321.5,554.5 321.5,555.5 321.5,556.5C 320.167,557.167 319.167,558.167 318.5,559.5C 317.5,559.5 316.5,559.5 315.5,559.5C 315.336,562.187 315.503,564.854 316,567.5C 317.833,569.333 319.667,571.167 321.5,573C 329.683,576.315 338.016,579.315 346.5,582C 351.332,585.011 355.998,588.178 360.5,591.5C 360.783,592.289 361.283,592.956 362,593.5C 363.639,602.096 362.306,610.096 358,617.5C 353.833,620.333 349.667,623.167 345.5,626C 343.866,626.494 342.199,626.66 340.5,626.5C 334.256,625.542 327.923,625.209 321.5,625.5C 318.462,623.68 315.129,622.014 311.5,620.5C 308.5,617.5 305.5,614.5 302.5,611.5C 301.534,609.604 301.201,607.604 301.5,605.5C 301.5,603.5 301.5,601.5 301.5,599.5C 305.931,599.769 310.265,599.436 314.5,598.5C 314.5,599.167 314.5,599.833 314.5,600.5C 313.772,606.199 316.105,610.366 321.5,613C 326.762,614.439 332.096,614.772 337.5,614C 340.994,612.625 344.327,611.125 347.5,609.5C 347.5,608.167 347.5,606.833 347.5,605.5C 348.036,602.302 347.369,599.635 345.5,597.5C 344.554,594.687 342.554,593.354 339.5,593.5C 338.665,592.057 337.332,591.057 335.5,590.5C 332.914,589.52 330.247,589.187 327.5,589.5C 320.911,586.205 314.244,582.872 307.5,579.5C 307.5,578.833 307.5,578.167 307.5,577.5C 307.5,576.167 306.833,575.5 305.5,575.5C 304.28,573.718 303.614,571.718 303.5,569.5C 303.5,565.5 303.5,561.5 303.5,557.5C 303.614,555.282 304.28,553.282 305.5,551.5C 308.167,550.167 310.167,548.167 311.5,545.5C 314.343,545.083 317.01,544.083 319.5,542.5C 331.724,539.802 343.057,541.802 353.5,548.5C 356.146,550.132 357.479,552.465 357.5,555.5C 358.5,555.5 359.5,555.5 360.5,555.5 Z"/></g>
<g><path style="opacity:0.996" fill="#fa0e04" d="M 532.5,559.5 C 533.919,563.395 535.086,567.395 536,571.5C 538.21,585.698 536.21,599.031 530,611.5C 526.5,615 523,618.5 519.5,622C 515.867,623.654 512.2,625.154 508.5,626.5C 502.04,626.069 495.707,625.069 489.5,623.5C 477.99,619.645 470.99,611.645 468.5,599.5C 467.52,596.914 467.187,594.247 467.5,591.5C 467.168,582.143 467.502,572.81 468.5,563.5C 470.083,561.01 471.083,558.343 471.5,555.5C 473.5,554.833 474.833,553.5 475.5,551.5C 488.853,540.067 503.519,538.4 519.5,546.5C 522.5,549.5 525.5,552.5 528.5,555.5C 529.429,556.689 529.762,558.022 529.5,559.5C 530.5,559.5 531.5,559.5 532.5,559.5 Z M 492.5,556.5 C 498.696,555.868 503.863,557.868 508,562.5C 509.603,566.547 511.103,570.547 512.5,574.5C 512.5,580.5 512.5,586.5 512.5,592.5C 510.932,594.811 510.098,597.478 510,600.5C 509.119,603.014 507.619,605.014 505.5,606.5C 503.693,607.615 501.693,608.281 499.5,608.5C 495.736,607.299 492.069,605.799 488.5,604C 485.854,601.097 483.854,597.93 482.5,594.5C 481.825,583.601 482.658,572.934 485,562.5C 487.106,559.882 489.606,557.882 492.5,556.5 Z"/></g>
<g><path style="opacity:0.992" fill="#fb0b04" d="M 612.5,561.5 C 612.312,563.103 612.812,564.437 614,565.5C 614.667,576.833 614.667,588.167 614,599.5C 610.376,613.624 601.543,622.624 587.5,626.5C 581.478,625.995 575.478,624.995 569.5,623.5C 559.649,619.986 552.649,613.32 548.5,603.5C 547.52,600.914 547.187,598.247 547.5,595.5C 547.5,586.167 547.5,576.833 547.5,567.5C 547.5,565.5 547.5,563.5 547.5,561.5C 549.974,558.57 551.974,555.237 553.5,551.5C 555.5,550.833 556.833,549.5 557.5,547.5C 562.241,545.967 566.908,544.134 571.5,542C 584.065,540.055 595.065,543.222 604.5,551.5C 606.689,554.656 608.356,557.989 609.5,561.5C 610.5,561.5 611.5,561.5 612.5,561.5 Z M 570.5,556.5 C 580.301,555.79 586.801,560.123 590,569.5C 591.043,580.64 590.543,591.64 588.5,602.5C 579.497,610.882 571.33,609.882 564,599.5C 562.908,596.956 562.241,594.289 562,591.5C 561.617,590.944 561.117,590.611 560.5,590.5C 560.164,581.682 560.998,573.016 563,564.5C 564.831,561.145 567.331,558.478 570.5,556.5 Z"/></g>
<g><path style="opacity:0.996" fill="#fc0501" d="M 39.5,542.5 C 51.1912,542.23 62.8579,542.563 74.5,543.5C 78.9901,544.774 83.3234,546.441 87.5,548.5C 89.9029,550.305 91.5695,552.638 92.5,555.5C 93.1835,555.137 93.8501,554.804 94.5,554.5C 96.3117,559.283 96.8117,564.283 96,569.5C 95.1191,572.014 93.6191,574.014 91.5,575.5C 88.7266,577.43 86.0599,579.597 83.5,582C 89.684,583.686 93.684,587.519 95.5,593.5C 96.5,593.5 97.5,593.5 98.5,593.5C 101.394,609.259 95.3937,619.592 80.5,624.5C 78.283,623.631 75.9496,623.298 73.5,623.5C 62.1667,623.5 50.8333,623.5 39.5,623.5C 39.5,596.5 39.5,569.5 39.5,542.5 Z M 54.5,556.5 C 56.8333,556.5 59.1667,556.5 61.5,556.5C 63.4758,558.011 65.8091,558.844 68.5,559C 69.7491,560.98 71.0824,562.813 72.5,564.5C 72.5,565.5 72.5,566.5 72.5,567.5C 67.7291,571.917 62.0624,573.417 55.5,572C 54.5286,566.928 54.1953,561.762 54.5,556.5 Z M 54.5,591.5 C 60.3733,591.366 66.3733,591.7 72.5,592.5C 74.1392,596.253 74.8059,600.253 74.5,604.5C 72.9897,605.836 71.3231,607.003 69.5,608C 65.1667,608.667 60.8333,608.667 56.5,608C 56,607.5 55.5,607 55,606.5C 54.5007,601.511 54.3341,596.511 54.5,591.5 Z"/></g>
<g><path style="opacity:0.688" fill="#ed4525" d="M 94.5,554.5 C 93.8501,554.804 93.1835,555.137 92.5,555.5C 91.5695,552.638 89.9029,550.305 87.5,548.5C 83.3234,546.441 78.9901,544.774 74.5,543.5C 62.8579,542.563 51.1912,542.23 39.5,542.5C 39.1583,541.662 38.4916,541.328 37.5,541.5C 35.5168,541.157 34.1834,541.824 33.5,543.5C 32.5,543.5 31.5,543.5 30.5,543.5C 30.8588,541.629 31.8588,540.129 33.5,539C 35.7148,538.83 37.7148,538.163 39.5,537C 50.5,536.333 61.5,536.333 72.5,537C 83.8196,537.819 91.1529,543.653 94.5,554.5 Z"/></g>
<g><path style="opacity:0.989" fill="#fd0200" d="M 167.5,541.5 C 168.645,545.311 168.812,549.311 168,553.5C 166.989,554.337 165.822,554.67 164.5,554.5C 152.247,553.521 139.913,553.187 127.5,553.5C 125.533,561.097 124.866,569.097 125.5,577.5C 137.913,577.813 150.247,577.479 162.5,576.5C 162.665,580.182 162.499,583.848 162,587.5C 160.989,588.337 159.822,588.67 158.5,588.5C 148.249,587.525 137.915,587.192 127.5,587.5C 125.53,595.769 124.864,604.435 125.5,613.5C 139.912,613.816 154.245,613.482 168.5,612.5C 168.666,616.846 168.499,621.179 168,625.5C 166.301,626.406 164.467,626.739 162.5,626.5C 162.5,625.833 162.167,625.5 161.5,625.5C 161.5,625.167 161.5,624.833 161.5,624.5C 145.675,623.504 129.675,623.17 113.5,623.5C 113.5,596.5 113.5,569.5 113.5,542.5C 131.674,542.83 149.674,542.497 167.5,541.5 Z"/></g>
<g><path style="opacity:1" fill="#fd0601" d="M 179.5,542.5 C 184.5,542.5 189.5,542.5 194.5,542.5C 194.5,563.833 194.5,585.167 194.5,606.5C 193.631,608.717 193.298,611.05 193.5,613.5C 205.913,613.813 218.247,613.479 230.5,612.5C 231.167,612.833 231.833,613.167 232.5,613.5C 232.5,616.833 232.5,620.167 232.5,623.5C 230.947,625.385 228.947,626.385 226.5,626.5C 225.609,625.89 224.609,625.557 223.5,625.5C 223.918,624.778 224.584,624.278 225.5,624C 210.17,623.5 194.837,623.333 179.5,623.5C 179.5,621.5 179.5,619.5 179.5,617.5C 179.5,592.833 179.5,568.167 179.5,543.5C 179.5,543.167 179.5,542.833 179.5,542.5 Z"/></g>
<g><path style="opacity:1" fill="#fd0501" d="M 254.5,540.5 C 255.117,540.611 255.617,540.944 256,541.5C 256.5,563.164 256.667,584.831 256.5,606.5C 255.631,608.717 255.298,611.05 255.5,613.5C 267.5,613.5 279.5,613.5 291.5,613.5C 291.5,616.833 291.5,620.167 291.5,623.5C 289.5,623.5 287.5,623.5 285.5,623.5C 270.833,623.5 256.167,623.5 241.5,623.5C 241.5,621.5 241.5,619.5 241.5,617.5C 241.5,592.833 241.5,568.167 241.5,543.5C 241.5,542.833 241.5,542.167 241.5,541.5C 245.931,541.769 250.265,541.436 254.5,540.5 Z"/></g>
<g><path style="opacity:0.984" fill="#fc0100" d="M 405.5,542.5 C 423.833,542.5 442.167,542.5 460.5,542.5C 460.665,546.182 460.499,549.848 460,553.5C 458.989,554.337 457.822,554.67 456.5,554.5C 444.247,553.521 431.913,553.187 419.5,553.5C 418.18,556.428 417.514,559.761 417.5,563.5C 417.668,568.52 418.001,573.52 418.5,578.5C 430.5,578.5 442.5,578.5 454.5,578.5C 454.665,582.182 454.499,585.848 454,589.5C 452.989,590.337 451.822,590.67 450.5,590.5C 440.249,589.525 429.915,589.192 419.5,589.5C 417.522,600.451 416.856,611.784 417.5,623.5C 415.5,623.5 413.5,623.5 411.5,623.5C 409.5,623.5 407.5,623.5 405.5,623.5C 405.5,596.5 405.5,569.5 405.5,542.5 Z"/></g>
<g><path style="opacity:0.996" fill="#fc0701" d="M 629.5,542.5 C 640.525,542.234 651.525,542.568 662.5,543.5C 665.419,544.64 668.419,545.473 671.5,546C 673.924,546.923 675.924,548.423 677.5,550.5C 678.689,551.429 680.022,551.762 681.5,551.5C 684.07,556.311 686.403,561.311 688.5,566.5C 688.957,567.298 689.624,567.631 690.5,567.5C 690.148,570.073 690.648,572.406 692,574.5C 692.667,580.167 692.667,585.833 692,591.5C 690.246,607.659 681.746,618.659 666.5,624.5C 664.283,623.631 661.95,623.298 659.5,623.5C 649.5,623.5 639.5,623.5 629.5,623.5C 629.5,596.5 629.5,569.5 629.5,542.5 Z M 645.5,556.5 C 646.833,556.5 648.167,556.5 649.5,556.5C 652.607,557.981 655.941,559.148 659.5,560C 662.462,562.287 664.629,565.12 666,568.5C 668,578.5 668,588.5 666,598.5C 664.923,600.578 663.757,602.578 662.5,604.5C 656.83,606.789 650.83,607.789 644.5,607.5C 644.182,590.423 644.515,573.423 645.5,556.5 Z"/></g>
<g><path style="opacity:0.497" fill="#c55f1b" d="M 30.5,545.5 C 31.8333,570.833 31.8333,596.167 30.5,621.5C 29.1667,596.167 29.1667,570.833 30.5,545.5 Z"/></g>
<g><path style="opacity:1" fill="#e26867" d="M 37.5,541.5 C 38.4916,541.328 39.1583,541.662 39.5,542.5C 38.5021,569.662 38.1688,596.995 38.5,624.5C 50.1667,624.5 61.8333,624.5 73.5,624.5C 61.6783,625.495 49.6783,625.828 37.5,625.5C 37.5,624.833 37.5,624.167 37.5,623.5C 37.5,597.5 37.5,571.5 37.5,545.5C 37.5,544.167 37.5,542.833 37.5,541.5 Z"/></g>
<g><path style="opacity:1" fill="#e26865" d="M 113.5,541.5 C 113.5,541.833 113.5,542.167 113.5,542.5C 112.502,569.662 112.169,596.995 112.5,624.5C 128.833,624.5 145.167,624.5 161.5,624.5C 161.5,624.833 161.5,625.167 161.5,625.5C 144.833,625.5 128.167,625.5 111.5,625.5C 111.5,624.833 111.5,624.167 111.5,623.5C 111.5,597.5 111.5,571.5 111.5,545.5C 111.5,544.833 111.5,544.167 111.5,543.5C 111.5,542.167 112.167,541.5 113.5,541.5 Z"/></g>
<g><path style="opacity:0.501" fill="#ae6930" d="M 179.5,538.5 C 179.5,539.833 179.5,541.167 179.5,542.5C 179.5,542.833 179.5,543.167 179.5,543.5C 178.833,543.5 178.167,543.5 177.5,543.5C 176.833,543.5 176.167,543.5 175.5,543.5C 174.167,556.483 173.501,569.816 173.5,583.5C 173.501,597.184 174.167,610.517 175.5,623.5C 176.183,625.176 177.517,625.843 179.5,625.5C 194.167,625.5 208.833,625.5 223.5,625.5C 224.609,625.557 225.609,625.89 226.5,626.5C 226.389,627.117 226.056,627.617 225.5,628C 208.833,628.667 192.167,628.667 175.5,628C 174,626.5 172.5,625 171,623.5C 170.333,596.833 170.333,570.167 171,543.5C 173.019,540.288 175.853,538.622 179.5,538.5 Z"/></g>
<g><path style="opacity:0.499" fill="#af6930" d="M 241.5,538.5 C 241.5,539.5 241.5,540.5 241.5,541.5C 241.5,542.167 241.5,542.833 241.5,543.5C 240.833,543.5 240.167,543.5 239.5,543.5C 238.833,543.5 238.167,543.5 237.5,543.5C 236.167,556.483 235.501,569.816 235.5,583.5C 235.501,597.184 236.167,610.517 237.5,623.5C 238.183,625.176 239.517,625.843 241.5,625.5C 256.167,625.5 270.833,625.5 285.5,625.5C 286.609,625.557 287.609,625.89 288.5,626.5C 288.389,627.117 288.056,627.617 287.5,628C 270.833,628.667 254.167,628.667 237.5,628C 235.963,626.293 234.296,624.793 232.5,623.5C 232.5,620.167 232.5,616.833 232.5,613.5C 232.333,590.164 232.5,566.831 233,543.5C 235.019,540.288 237.853,538.622 241.5,538.5 Z"/></g>
<g><path style="opacity:0.614" fill="#ed4525" d="M 612.5,561.5 C 611.5,561.5 610.5,561.5 609.5,561.5C 608.356,557.989 606.689,554.656 604.5,551.5C 595.065,543.222 584.065,540.055 571.5,542C 566.908,544.134 562.241,545.967 557.5,547.5C 557.784,545.585 557.451,543.919 556.5,542.5C 559.54,539.678 563.206,537.844 567.5,537C 587.877,532.365 602.711,539.199 612,557.5C 612.49,558.793 612.657,560.127 612.5,561.5 Z"/></g>
<g><path style="opacity:0.495" fill="#c6601b" d="M 396.5,546.5 C 397.833,570.833 397.833,595.167 396.5,619.5C 395.167,595.167 395.167,570.833 396.5,546.5 Z"/></g>
<g><path style="opacity:1" fill="#e16a6c" d="M 403.5,541.5 C 404.492,541.328 405.158,541.662 405.5,542.5C 404.167,569.833 404.167,597.167 405.5,624.5C 405.5,624.833 405.5,625.167 405.5,625.5C 404.833,625.5 404.167,625.5 403.5,625.5C 403.5,624.833 403.5,624.167 403.5,623.5C 403.5,597.5 403.5,571.5 403.5,545.5C 403.5,544.167 403.5,542.833 403.5,541.5 Z"/></g>
<g><path style="opacity:1" fill="#e26866" d="M 627.5,541.5 C 628.492,541.328 629.158,541.662 629.5,542.5C 628.502,569.662 628.169,596.995 628.5,624.5C 638.833,624.5 649.167,624.5 659.5,624.5C 649.013,625.494 638.346,625.828 627.5,625.5C 627.5,624.833 627.5,624.167 627.5,623.5C 627.5,597.5 627.5,571.5 627.5,545.5C 627.5,544.167 627.5,542.833 627.5,541.5 Z"/></g>
<g><path style="opacity:1" fill="#69a9a5" d="M 37.5,541.5 C 37.5,542.833 37.5,544.167 37.5,545.5C 36.1675,558.149 35.5008,571.149 35.5,584.5C 35.5008,597.851 36.1675,610.851 37.5,623.5C 37.5,624.167 37.5,624.833 37.5,625.5C 35.5168,625.843 34.1834,625.176 33.5,623.5C 33.5,596.833 33.5,570.167 33.5,543.5C 34.1834,541.824 35.5168,541.157 37.5,541.5 Z"/></g>
<g><path style="opacity:1" fill="#5bb3c4" d="M 37.5,545.5 C 37.5,571.5 37.5,597.5 37.5,623.5C 36.1675,610.851 35.5008,597.851 35.5,584.5C 35.5008,571.149 36.1675,558.149 37.5,545.5 Z"/></g>
<g><path style="opacity:1" fill="#5cb3c4" d="M 111.5,545.5 C 111.5,571.5 111.5,597.5 111.5,623.5C 110.167,610.851 109.501,597.851 109.5,584.5C 109.501,571.149 110.167,558.149 111.5,545.5 Z"/></g>
<g><path style="opacity:1" fill="#5cb4bc" d="M 175.5,543.5 C 176.167,543.5 176.833,543.5 177.5,543.5C 176.843,568.523 177.51,593.189 179.5,617.5C 179.5,619.5 179.5,621.5 179.5,623.5C 179.5,624.167 179.5,624.833 179.5,625.5C 177.517,625.843 176.183,625.176 175.5,623.5C 175.5,596.833 175.5,570.167 175.5,543.5 Z"/></g>
<g><path style="opacity:1" fill="#759ca8" d="M 239.5,543.5 C 240.167,543.5 240.833,543.5 241.5,543.5C 241.5,568.167 241.5,592.833 241.5,617.5C 239.51,593.189 238.843,568.523 239.5,543.5 Z"/></g>
<g><path style="opacity:1" fill="#5cb3c4" d="M 403.5,545.5 C 403.5,571.5 403.5,597.5 403.5,623.5C 402.167,610.851 401.501,597.851 401.5,584.5C 401.501,571.149 402.167,558.149 403.5,545.5 Z"/></g>
<g><path style="opacity:1" fill="#a02829" d="M 405.5,542.5 C 405.5,569.5 405.5,596.5 405.5,623.5C 407.5,623.5 409.5,623.5 411.5,623.5C 409.735,624.461 407.735,624.795 405.5,624.5C 404.167,597.167 404.167,569.833 405.5,542.5 Z"/></g>
<g><path style="opacity:0.491" fill="#c5611b" d="M 620.5,547.5 C 621.833,555.5 621.833,563.5 620.5,571.5C 619.167,563.5 619.167,555.5 620.5,547.5 Z"/></g>
<g><path style="opacity:1" fill="#5cb3c4" d="M 627.5,545.5 C 627.5,571.5 627.5,597.5 627.5,623.5C 626.167,610.851 625.501,597.851 625.5,584.5C 625.501,571.149 626.167,558.149 627.5,545.5 Z"/></g>
<g><path style="opacity:1" fill="#a22827" d="M 629.5,542.5 C 629.5,569.5 629.5,596.5 629.5,623.5C 639.5,623.5 649.5,623.5 659.5,623.5C 659.5,623.833 659.5,624.167 659.5,624.5C 649.167,624.5 638.833,624.5 628.5,624.5C 628.169,596.995 628.502,569.662 629.5,542.5 Z"/></g>
<g><path style="opacity:1" fill="#9b7e54" d="M 113.5,538.5 C 113.5,539.5 113.5,540.5 113.5,541.5C 112.167,541.5 111.5,542.167 111.5,543.5C 110.167,543.5 108.833,543.5 107.5,543.5C 107.5,570.167 107.5,596.833 107.5,623.5C 106.5,623.5 105.5,623.5 104.5,623.5C 104.5,622.167 104.5,620.833 104.5,619.5C 105.833,596.833 105.833,574.167 104.5,551.5C 103.415,546.854 104.415,542.687 107.5,539C 109.473,538.505 111.473,538.338 113.5,538.5 Z"/></g>
<g><path style="opacity:1" fill="#a22728" d="M 39.5,542.5 C 39.5,569.5 39.5,596.5 39.5,623.5C 50.8333,623.5 62.1667,623.5 73.5,623.5C 73.5,623.833 73.5,624.167 73.5,624.5C 61.8333,624.5 50.1667,624.5 38.5,624.5C 38.1688,596.995 38.5021,569.662 39.5,542.5 Z"/></g>
<g><path style="opacity:0.776" fill="#eb4728" d="M 532.5,559.5 C 531.5,559.5 530.5,559.5 529.5,559.5C 529.762,558.022 529.429,556.689 528.5,555.5C 525.5,552.5 522.5,549.5 519.5,546.5C 503.519,538.4 488.853,540.067 475.5,551.5C 475.248,548.756 475.915,546.256 477.5,544C 477.43,543.235 477.097,542.735 476.5,542.5C 479.574,539.634 483.24,537.801 487.5,537C 495.5,536.333 503.5,536.333 511.5,537C 518.769,540.251 524.935,545.084 530,551.5C 531.591,553.927 532.425,556.593 532.5,559.5 Z"/></g>
<g><path style="opacity:0.776" fill="#be6331" d="M 556.5,542.5 C 557.451,543.919 557.784,545.585 557.5,547.5C 556.833,549.5 555.5,550.833 553.5,551.5C 553.38,550.414 552.713,549.747 551.5,549.5C 548.532,551.434 546.532,554.1 545.5,557.5C 543.824,558.183 543.157,559.517 543.5,561.5C 542.5,561.5 541.5,561.5 540.5,561.5C 540.343,560.127 540.51,558.793 541,557.5C 544.392,552.1 548.559,547.267 553.5,543C 554.448,542.517 555.448,542.351 556.5,542.5 Z"/></g>
<g><path style="opacity:0.497" fill="#c3601b" d="M 104.5,551.5 C 105.833,574.167 105.833,596.833 104.5,619.5C 103.167,596.833 103.167,574.167 104.5,551.5 Z"/></g>
<g><path style="opacity:1" fill="#a08074" d="M 305.5,551.5 C 304.28,553.282 303.614,555.282 303.5,557.5C 302.833,557.5 302.167,557.5 301.5,557.5C 301.843,555.517 301.176,554.183 299.5,553.5C 300.743,551.247 302.41,549.247 304.5,547.5C 305.429,548.689 305.762,550.022 305.5,551.5 Z"/></g>
<g><path style="opacity:1" fill="#d3413d" d="M 583.5,553.5 C 582.833,553.5 582.167,553.5 581.5,553.5C 579.5,553.5 577.5,553.5 575.5,553.5C 576.334,552.252 577.667,551.585 579.5,551.5C 581.333,551.585 582.666,552.252 583.5,553.5 Z"/></g>
<g><path style="opacity:1" fill="#7a947e" d="M 237.5,543.5 C 237.5,570.167 237.5,596.833 237.5,623.5C 236.167,610.517 235.501,597.184 235.5,583.5C 235.501,569.816 236.167,556.483 237.5,543.5 Z"/></g>
<g><path style="opacity:1" fill="#69a6a0" d="M 403.5,541.5 C 403.5,542.833 403.5,544.167 403.5,545.5C 402.167,558.149 401.501,571.149 401.5,584.5C 401.501,597.851 402.167,610.851 403.5,623.5C 403.5,624.167 403.5,624.833 403.5,625.5C 401.517,625.843 400.183,625.176 399.5,623.5C 399.5,596.833 399.5,570.167 399.5,543.5C 400.183,541.824 401.517,541.157 403.5,541.5 Z"/></g>
<g><path style="opacity:0.443" fill="#b96738" d="M 476.5,542.5 C 477.097,542.735 477.43,543.235 477.5,544C 475.915,546.256 475.248,548.756 475.5,551.5C 474.833,553.5 473.5,554.833 471.5,555.5C 471.762,554.022 471.429,552.689 470.5,551.5C 466.605,554.627 464.272,558.627 463.5,563.5C 462.5,563.5 461.5,563.5 460.5,563.5C 463.573,554.763 468.906,547.763 476.5,542.5 Z"/></g>
<g><path style="opacity:1" fill="#69a6a0" d="M 627.5,541.5 C 627.5,542.833 627.5,544.167 627.5,545.5C 626.167,558.149 625.501,571.149 625.5,584.5C 625.501,597.851 626.167,610.851 627.5,623.5C 627.5,624.167 627.5,624.833 627.5,625.5C 625.517,625.843 624.183,625.176 623.5,623.5C 623.5,596.833 623.5,570.167 623.5,543.5C 624.183,541.824 625.517,541.157 627.5,541.5 Z"/></g>
<g><path style="opacity:1" fill="#8d856e" d="M 53.5,553.5 C 60.5837,552.874 67.2504,553.541 73.5,555.5C 72.1667,555.5 71.5,556.167 71.5,557.5C 68.2257,555.5 64.8924,555.167 61.5,556.5C 59.1667,556.5 56.8333,556.5 54.5,556.5C 53.8902,555.609 53.5569,554.609 53.5,553.5 Z"/></g>
<g><path style="opacity:0.4" fill="#9b774b" d="M 127.5,553.5 C 139.913,553.187 152.247,553.521 164.5,554.5C 164.389,555.117 164.056,555.617 163.5,556C 151.838,556.5 140.171,556.667 128.5,556.5C 127.89,555.609 127.557,554.609 127.5,553.5 Z"/></g>
<g><path style="opacity:0.497" fill="#9c794c" d="M 419.5,553.5 C 431.913,553.187 444.247,553.521 456.5,554.5C 456.389,555.117 456.056,555.617 455.5,556C 443.838,556.5 432.171,556.667 420.5,556.5C 419.89,555.609 419.557,554.609 419.5,553.5 Z"/></g>
<g><path style="opacity:1" fill="#948266" d="M 643.5,553.5 C 650.584,552.874 657.25,553.541 663.5,555.5C 662.167,555.5 661.5,556.167 661.5,557.5C 658.865,556.858 656.198,556.191 653.5,555.5C 651.955,555.511 650.622,555.844 649.5,556.5C 648.167,556.5 646.833,556.5 645.5,556.5C 644.449,555.778 643.782,554.778 643.5,553.5 Z"/></g>
<g><path style="opacity:1" fill="#67aaa5" d="M 111.5,543.5 C 111.5,544.167 111.5,544.833 111.5,545.5C 110.167,558.149 109.501,571.149 109.5,584.5C 109.501,597.851 110.167,610.851 111.5,623.5C 111.5,624.167 111.5,624.833 111.5,625.5C 109.517,625.843 108.183,625.176 107.5,623.5C 107.5,596.833 107.5,570.167 107.5,543.5C 108.833,543.5 110.167,543.5 111.5,543.5 Z"/></g>
<g><path style="opacity:1" fill="#759baa" d="M 177.5,543.5 C 178.167,543.5 178.833,543.5 179.5,543.5C 179.5,568.167 179.5,592.833 179.5,617.5C 177.51,593.189 176.843,568.523 177.5,543.5 Z"/></g>
<g><path style="opacity:1" fill="#5ab3be" d="M 237.5,543.5 C 238.167,543.5 238.833,543.5 239.5,543.5C 238.843,568.523 239.51,593.189 241.5,617.5C 241.5,619.5 241.5,621.5 241.5,623.5C 241.5,624.167 241.5,624.833 241.5,625.5C 239.517,625.843 238.183,625.176 237.5,623.5C 237.5,596.833 237.5,570.167 237.5,543.5 Z"/></g>
<g><path style="opacity:1" fill="#987d55" d="M 396.5,543.5 C 397.5,543.5 398.5,543.5 399.5,543.5C 399.5,570.167 399.5,596.833 399.5,623.5C 398.5,623.5 397.5,623.5 396.5,623.5C 396.5,622.167 396.5,620.833 396.5,619.5C 397.833,595.167 397.833,570.833 396.5,546.5C 396.5,545.5 396.5,544.5 396.5,543.5 Z"/></g>
<g><path style="opacity:1" fill="#a47d71" d="M 553.5,551.5 C 551.974,555.237 549.974,558.57 547.5,561.5C 547.843,559.517 547.176,558.183 545.5,557.5C 546.532,554.1 548.532,551.434 551.5,549.5C 552.713,549.747 553.38,550.414 553.5,551.5 Z"/></g>
<g><path style="opacity:1" fill="#b0535d" d="M 511.5,555.5 C 512.833,555.5 513.5,556.167 513.5,557.5C 513.5,556.167 512.833,555.5 511.5,555.5 Z"/></g>
<g><path style="opacity:1" fill="#85937b" d="M 581.5,553.5 C 582.167,553.5 582.833,553.5 583.5,553.5C 585.483,553.157 586.817,553.824 587.5,555.5C 588.72,557.282 589.386,559.282 589.5,561.5C 586.167,559.5 583.5,556.833 581.5,553.5 Z"/></g>
<g><path style="opacity:1" fill="#6ba9ad" d="M 73.5,555.5 C 77.5,555.5 79.5,557.5 79.5,561.5C 79.5,563.5 79.5,565.5 79.5,567.5C 78.1667,567.5 76.8333,567.5 75.5,567.5C 76.0356,564.302 75.369,561.635 73.5,559.5C 73.5,558.167 72.8333,557.5 71.5,557.5C 71.5,556.167 72.1667,555.5 73.5,555.5 Z"/></g>
<g><path style="opacity:0.443" fill="#b06833" d="M 337.5,553.5 C 336.022,553.238 334.689,553.571 333.5,554.5C 339.03,556.694 342.363,560.694 343.5,566.5C 344.689,567.429 346.022,567.762 347.5,567.5C 350.609,567.264 353.609,567.597 356.5,568.5C 356.389,569.117 356.056,569.617 355.5,570C 351.5,570.667 347.5,570.667 343.5,570C 340.181,565.414 336.514,561.081 332.5,557C 328.848,556.501 325.182,556.335 321.5,556.5C 321.5,555.5 321.5,554.5 321.5,553.5C 324.752,552.623 328.085,551.957 331.5,551.5C 333.952,551.539 335.952,552.206 337.5,553.5 Z"/></g>
<g><path style="opacity:1" fill="#6ba9a9" d="M 337.5,553.5 C 344.685,555.36 348.019,560.026 347.5,567.5C 346.022,567.762 344.689,567.429 343.5,566.5C 342.363,560.694 339.03,556.694 333.5,554.5C 334.689,553.571 336.022,553.238 337.5,553.5 Z"/></g>
<g><path style="opacity:1" fill="#988157" d="M 30.5,543.5 C 31.5,543.5 32.5,543.5 33.5,543.5C 33.5,570.167 33.5,596.833 33.5,623.5C 32.5,623.5 31.5,623.5 30.5,623.5C 30.5,622.833 30.5,622.167 30.5,621.5C 31.8333,596.167 31.8333,570.833 30.5,545.5C 30.5,544.833 30.5,544.167 30.5,543.5 Z"/></g>
<g><path style="opacity:1" fill="#b0692f" d="M 71.5,557.5 C 72.8333,557.5 73.5,558.167 73.5,559.5C 73.634,561.292 73.3007,562.958 72.5,564.5C 71.0824,562.813 69.7491,560.98 68.5,559C 65.8091,558.844 63.4758,558.011 61.5,556.5C 64.8924,555.167 68.2257,555.5 71.5,557.5 Z"/></g>
<g><path style="opacity:0.443" fill="#ae6d35" d="M 501.5,553.5 C 505.374,556.363 509.041,559.696 512.5,563.5C 513.429,564.689 513.762,566.022 513.5,567.5C 513.802,570.059 513.468,572.393 512.5,574.5C 511.103,570.547 509.603,566.547 508,562.5C 503.863,557.868 498.696,555.868 492.5,556.5C 492.804,555.85 493.137,555.183 493.5,554.5C 496.086,553.52 498.753,553.187 501.5,553.5 Z"/></g>
<g><path style="opacity:0.294" fill="#b16c35" d="M 575.5,553.5 C 577.5,553.5 579.5,553.5 581.5,553.5C 583.5,556.833 586.167,559.5 589.5,561.5C 590.833,561.5 591.5,562.167 591.5,563.5C 593.314,574.713 593.98,586.046 593.5,597.5C 593.157,599.483 593.824,600.817 595.5,601.5C 595.843,603.483 595.176,604.817 593.5,605.5C 591.011,605.759 589.344,604.759 588.5,602.5C 590.543,591.64 591.043,580.64 590,569.5C 586.801,560.123 580.301,555.79 570.5,556.5C 571.344,554.241 573.011,553.241 575.5,553.5 Z"/></g>
<g><path style="opacity:1" fill="#c54d50" d="M 301.5,557.5 C 302.167,557.5 302.833,557.5 303.5,557.5C 303.5,561.5 303.5,565.5 303.5,569.5C 301.577,565.971 300.911,561.971 301.5,557.5 Z"/></g>
<g><path style="opacity:1" fill="#a94f58" d="M 671.5,561.5 C 672.833,561.5 673.5,562.167 673.5,563.5C 673.5,562.167 672.833,561.5 671.5,561.5 Z"/></g>
<g><path style="opacity:1" fill="#9c7e5e" d="M 73.5,559.5 C 75.369,561.635 76.0356,564.302 75.5,567.5C 76.8333,567.5 78.1667,567.5 79.5,567.5C 79.0296,568.693 78.0296,569.36 76.5,569.5C 74.8857,569.197 73.5523,568.53 72.5,567.5C 72.5,566.5 72.5,565.5 72.5,564.5C 73.3007,562.958 73.634,561.292 73.5,559.5 Z"/></g>
<g><path style="opacity:1" fill="#68acb3" d="M 663.5,555.5 C 667.309,555.975 669.975,557.975 671.5,561.5C 671.5,562.833 672.167,563.5 673.5,563.5C 674.968,565.916 675.635,568.583 675.5,571.5C 675.5,578.833 675.5,586.167 675.5,593.5C 675.843,595.483 675.176,596.817 673.5,597.5C 672.167,588.167 670.833,578.833 669.5,569.5C 668.833,566.833 668.167,564.167 667.5,561.5C 664.446,561.646 662.446,560.313 661.5,557.5C 661.5,556.167 662.167,555.5 663.5,555.5 Z"/></g>
<g><path style="opacity:1" fill="#83948d" d="M 471.5,555.5 C 471.083,558.343 470.083,561.01 468.5,563.5C 467.502,572.81 467.168,582.143 467.5,591.5C 465.852,583.875 464.852,575.875 464.5,567.5C 463.501,578.814 463.168,590.147 463.5,601.5C 461.84,589.701 460.84,577.701 460.5,565.5C 460.5,564.833 460.5,564.167 460.5,563.5C 461.5,563.5 462.5,563.5 463.5,563.5C 464.272,558.627 466.605,554.627 470.5,551.5C 471.429,552.689 471.762,554.022 471.5,555.5 Z"/></g>
<g><path style="opacity:1" fill="#61b1b8" d="M 299.5,553.5 C 301.176,554.183 301.843,555.517 301.5,557.5C 300.911,561.971 301.577,565.971 303.5,569.5C 303.614,571.718 304.28,573.718 305.5,575.5C 306.833,575.5 307.5,576.167 307.5,577.5C 307.5,578.167 307.5,578.833 307.5,579.5C 306.167,579.5 304.833,579.5 303.5,579.5C 301.491,577.134 299.824,574.468 298.5,571.5C 298.167,568.5 297.833,565.5 297.5,562.5C 297.517,559.087 298.184,556.087 299.5,553.5 Z"/></g>
<g><path style="opacity:0.667" fill="#b06c38" d="M 311.5,540.5 C 312.091,541.151 312.757,541.818 313.5,542.5C 312.388,543.265 311.721,544.265 311.5,545.5C 310.167,548.167 308.167,550.167 305.5,551.5C 305.762,550.022 305.429,548.689 304.5,547.5C 302.41,549.247 300.743,551.247 299.5,553.5C 298.184,556.087 297.517,559.087 297.5,562.5C 297.833,565.5 298.167,568.5 298.5,571.5C 299.824,574.468 301.491,577.134 303.5,579.5C 303.721,580.735 304.388,581.735 305.5,582.5C 309.314,584.744 313.314,586.411 317.5,587.5C 317.5,588.5 317.5,589.5 317.5,590.5C 303.693,587.028 295.36,578.361 292.5,564.5C 294.437,552.908 300.77,544.908 311.5,540.5 Z"/></g>
<g><path style="opacity:0.444" fill="#e7482c" d="M 53.5,553.5 C 53.5569,554.609 53.8902,555.609 54.5,556.5C 54.1953,561.762 54.5286,566.928 55.5,572C 62.0624,573.417 67.7291,571.917 72.5,567.5C 73.5523,568.53 74.8857,569.197 76.5,569.5C 78.0296,569.36 79.0296,568.693 79.5,567.5C 79.5,565.5 79.5,563.5 79.5,561.5C 81.4023,564.337 82.069,567.671 81.5,571.5C 80.1667,571.5 78.8333,571.5 77.5,571.5C 77.5,572.833 77.5,574.167 77.5,575.5C 68.9597,577.295 60.293,577.961 51.5,577.5C 50.8665,569.097 51.5332,561.097 53.5,553.5 Z"/></g>
<g><path style="opacity:0.68" fill="#ee4423" d="M 419.5,553.5 C 419.557,554.609 419.89,555.609 420.5,556.5C 420.5,561.833 420.5,567.167 420.5,572.5C 430.839,572.334 441.172,572.5 451.5,573C 453.607,574.264 454.607,576.097 454.5,578.5C 442.5,578.5 430.5,578.5 418.5,578.5C 418.001,573.52 417.668,568.52 417.5,563.5C 417.514,559.761 418.18,556.428 419.5,553.5 Z"/></g>
<g><path style="opacity:1" fill="#68acb3" d="M 501.5,553.5 C 505.083,553.232 508.416,553.899 511.5,555.5C 511.5,556.833 512.167,557.5 513.5,557.5C 515.13,559.359 516.796,561.359 518.5,563.5C 519.466,565.396 519.799,567.396 519.5,569.5C 519.5,577.5 519.5,585.5 519.5,593.5C 519.975,596.082 519.308,598.082 517.5,599.5C 516.167,588.833 514.833,578.167 513.5,567.5C 513.762,566.022 513.429,564.689 512.5,563.5C 509.041,559.696 505.374,556.363 501.5,553.5 Z"/></g>
<g><path style="opacity:1" fill="#8298a0" d="M 597.5,567.5 C 598.828,572.119 599.494,577.119 599.5,582.5C 599.167,587.5 598.833,592.5 598.5,597.5C 597.943,599.332 596.943,600.665 595.5,601.5C 593.824,600.817 593.157,599.483 593.5,597.5C 595.308,596.082 595.975,594.082 595.5,591.5C 597.467,583.903 598.134,575.903 597.5,567.5 Z"/></g>
<g><path style="opacity:0.495" fill="#c5611b" d="M 620.5,573.5 C 621.833,588.833 621.833,604.167 620.5,619.5C 619.167,604.167 619.167,588.833 620.5,573.5 Z"/></g>
<g><path style="opacity:0.629" fill="#ef4323" d="M 318.5,559.5 C 317.846,563.683 319.512,566.516 323.5,568C 333.231,570.553 342.564,574.219 351.5,579C 355.947,582.257 358.947,586.424 360.5,591.5C 355.998,588.178 351.332,585.011 346.5,582C 338.016,579.315 329.683,576.315 321.5,573C 319.667,571.167 317.833,569.333 316,567.5C 315.503,564.854 315.336,562.187 315.5,559.5C 316.5,559.5 317.5,559.5 318.5,559.5 Z"/></g>
<g><path style="opacity:1" fill="#a12826" d="M 113.5,542.5 C 113.5,569.5 113.5,596.5 113.5,623.5C 129.675,623.17 145.675,623.504 161.5,624.5C 145.167,624.5 128.833,624.5 112.5,624.5C 112.169,596.995 112.502,569.662 113.5,542.5 Z"/></g>
<g><path style="opacity:1" fill="#f13a22" d="M 127.5,553.5 C 127.557,554.609 127.89,555.609 128.5,556.5C 128.5,561.167 128.5,565.833 128.5,570.5C 138.839,570.334 149.172,570.5 159.5,571C 161.607,572.264 162.607,574.097 162.5,576.5C 150.247,577.479 137.913,577.813 125.5,577.5C 124.866,569.097 125.533,561.097 127.5,553.5 Z"/></g>
<g><path style="opacity:1" fill="#99815e" d="M 513.5,567.5 C 514.833,578.167 516.167,588.833 517.5,599.5C 517.5,600.833 517.5,602.167 517.5,603.5C 516.167,603.5 514.833,603.5 513.5,603.5C 513.815,599.629 513.482,595.962 512.5,592.5C 512.5,586.5 512.5,580.5 512.5,574.5C 513.468,572.393 513.802,570.059 513.5,567.5 Z"/></g>
<g><path style="opacity:1" fill="#d04f51" d="M 547.5,567.5 C 547.5,576.833 547.5,586.167 547.5,595.5C 546.173,591.217 545.507,586.551 545.5,581.5C 545.507,576.449 546.173,571.783 547.5,567.5 Z"/></g>
<g><path style="opacity:1" fill="#7e9885" d="M 591.5,563.5 C 592.735,563.721 593.735,564.388 594.5,565.5C 595.498,574.141 595.831,582.808 595.5,591.5C 595.975,594.082 595.308,596.082 593.5,597.5C 593.98,586.046 593.314,574.713 591.5,563.5 Z"/></g>
<g><path style="opacity:1" fill="#59b5c0" d="M 587.5,555.5 C 593.623,557.036 596.957,561.036 597.5,567.5C 598.134,575.903 597.467,583.903 595.5,591.5C 595.831,582.808 595.498,574.141 594.5,565.5C 593.735,564.388 592.735,563.721 591.5,563.5C 591.5,562.167 590.833,561.5 589.5,561.5C 589.386,559.282 588.72,557.282 587.5,555.5 Z"/></g>
<g><path style="opacity:0.579" fill="#ba652b" d="M 661.5,557.5 C 662.446,560.313 664.446,561.646 667.5,561.5C 668.167,564.167 668.833,566.833 669.5,569.5C 669.5,580.167 669.5,590.833 669.5,601.5C 670.833,601.5 672.167,601.5 673.5,601.5C 672.833,603.5 671.5,604.833 669.5,605.5C 666.941,605.802 664.607,605.468 662.5,604.5C 663.757,602.578 664.923,600.578 666,598.5C 668,588.5 668,578.5 666,568.5C 664.629,565.12 662.462,562.287 659.5,560C 655.941,559.148 652.607,557.981 649.5,556.5C 650.622,555.844 651.955,555.511 653.5,555.5C 656.198,556.191 658.865,556.858 661.5,557.5 Z"/></g>
<g><path style="opacity:1" fill="#a7545e" d="M 305.5,575.5 C 306.833,575.5 307.5,576.167 307.5,577.5C 306.167,577.5 305.5,576.833 305.5,575.5 Z"/></g>
<g><path style="opacity:0.512" fill="#ae6d34" d="M 460.5,565.5 C 460.84,577.701 461.84,589.701 463.5,601.5C 464.576,604.734 465.243,608.068 465.5,611.5C 466.833,611.5 468.167,611.5 469.5,611.5C 472.383,619.37 478.05,624.037 486.5,625.5C 488.03,625.36 489.03,624.693 489.5,623.5C 495.707,625.069 502.04,626.069 508.5,626.5C 508.389,627.117 508.056,627.617 507.5,628C 482.728,632.772 466.561,623.272 459,599.5C 458.333,588.833 458.333,578.167 459,567.5C 459.278,566.584 459.778,565.918 460.5,565.5 Z"/></g>
<g><path style="opacity:1" fill="#987d52" d="M 540.5,562.5 C 541.477,573.419 541.81,584.419 541.5,595.5C 539.848,588.39 538.848,581.057 538.5,573.5C 538.335,570.15 538.502,566.817 539,563.5C 539.383,562.944 539.883,562.611 540.5,562.5 Z"/></g>
<g><path style="opacity:1" fill="#948667" d="M 669.5,569.5 C 670.833,578.833 672.167,588.167 673.5,597.5C 673.5,598.833 673.5,600.167 673.5,601.5C 672.167,601.5 670.833,601.5 669.5,601.5C 669.5,590.833 669.5,580.167 669.5,569.5 Z"/></g>
<g><path style="opacity:0.721" fill="#ee4020" d="M 91.5,575.5 C 90.5269,577.068 90.3603,578.735 91,580.5C 95.3501,583.818 97.8501,588.151 98.5,593.5C 97.5,593.5 96.5,593.5 95.5,593.5C 93.684,587.519 89.684,583.686 83.5,582C 86.0599,579.597 88.7266,577.43 91.5,575.5 Z"/></g>
<g><path style="opacity:1" fill="#819381" d="M 303.5,579.5 C 304.833,579.5 306.167,579.5 307.5,579.5C 314.244,582.872 320.911,586.205 327.5,589.5C 324.615,589.194 321.948,589.527 319.5,590.5C 318.833,590.5 318.167,590.5 317.5,590.5C 317.5,589.5 317.5,588.5 317.5,587.5C 313.314,586.411 309.314,584.744 305.5,582.5C 304.388,581.735 303.721,580.735 303.5,579.5 Z"/></g>
<g><path style="opacity:1" fill="#c85d62" d="M 519.5,569.5 C 520.822,572.768 521.489,576.435 521.5,580.5C 521.333,584.167 521.167,587.833 521,591.5C 520.722,592.416 520.222,593.082 519.5,593.5C 519.5,585.5 519.5,577.5 519.5,569.5 Z"/></g>
<g><path style="opacity:1" fill="#c43536" d="M 675.5,571.5 C 676.82,574.428 677.486,577.761 677.5,581.5C 677.333,584.833 677.167,588.167 677,591.5C 676.722,592.416 676.222,593.082 675.5,593.5C 675.5,586.167 675.5,578.833 675.5,571.5 Z"/></g>
<g><path style="opacity:1" fill="#967e61" d="M 53.5,587.5 C 61.9032,586.866 69.9032,587.533 77.5,589.5C 76.1667,589.5 75.5,590.167 75.5,591.5C 68.3719,589.655 61.0386,588.988 53.5,589.5C 53.5,588.833 53.5,588.167 53.5,587.5 Z"/></g>
<g><path style="opacity:0.639" fill="#9a784d" d="M 127.5,587.5 C 137.915,587.192 148.249,587.525 158.5,588.5C 158.389,589.117 158.056,589.617 157.5,590C 148.173,590.5 138.839,590.666 129.5,590.5C 128.449,589.778 127.782,588.778 127.5,587.5 Z"/></g>
<g><path style="opacity:0.667" fill="#b46836" d="M 53.5,589.5 C 61.0386,588.988 68.3719,589.655 75.5,591.5C 76.799,595.37 77.4657,599.37 77.5,603.5C 79.5,603.5 81.5,603.5 83.5,603.5C 82.8333,604.833 82.1667,606.167 81.5,607.5C 78.3637,608.021 76.0304,607.021 74.5,604.5C 74.8059,600.253 74.1392,596.253 72.5,592.5C 66.3733,591.7 60.3733,591.366 54.5,591.5C 54.1667,590.833 53.8333,590.167 53.5,589.5 Z"/></g>
<g><path style="opacity:0.5" fill="#9c794c" d="M 419.5,589.5 C 429.915,589.192 440.249,589.525 450.5,590.5C 450.389,591.117 450.056,591.617 449.5,592C 439.839,592.5 430.172,592.666 420.5,592.5C 419.89,591.609 419.557,590.609 419.5,589.5 Z"/></g>
<g><path style="opacity:1" fill="#7a947e" d="M 175.5,543.5 C 175.5,570.167 175.5,596.833 175.5,623.5C 174.167,610.517 173.501,597.184 173.5,583.5C 173.501,569.816 174.167,556.483 175.5,543.5 Z"/></g>
<g><path style="opacity:0.61" fill="#b06a30" d="M 327.5,589.5 C 332.443,592.318 337.11,595.651 341.5,599.5C 341.5,602.167 341.5,604.833 341.5,607.5C 340.391,607.443 339.391,607.11 338.5,606.5C 338.662,604.473 338.495,602.473 338,600.5C 333.213,595.512 327.38,592.678 320.5,592C 319.944,591.617 319.611,591.117 319.5,590.5C 321.948,589.527 324.615,589.194 327.5,589.5 Z"/></g>
<g><path style="opacity:1" fill="#84907d" d="M 327.5,589.5 C 330.247,589.187 332.914,589.52 335.5,590.5C 337.332,591.057 338.665,592.057 339.5,593.5C 340.72,595.282 341.386,597.282 341.5,599.5C 337.11,595.651 332.443,592.318 327.5,589.5 Z"/></g>
<g><path style="opacity:0.996" fill="#987d54" d="M 620.5,543.5 C 621.5,543.5 622.5,543.5 623.5,543.5C 623.5,570.167 623.5,596.833 623.5,623.5C 622.5,623.5 621.5,623.5 620.5,623.5C 620.5,622.167 620.5,620.833 620.5,619.5C 621.833,604.167 621.833,588.833 620.5,573.5C 620.5,572.833 620.5,572.167 620.5,571.5C 621.833,563.5 621.833,555.5 620.5,547.5C 620.5,546.167 620.5,544.833 620.5,543.5 Z"/></g>
<g><path style="opacity:1" fill="#54b9c8" d="M 77.5,589.5 C 79.5,590.167 80.8333,591.5 81.5,593.5C 83.1011,596.423 82.7678,599.09 80.5,601.5C 79.8333,598.833 79.1667,596.167 78.5,593.5C 77.7348,592.388 76.7348,591.721 75.5,591.5C 75.5,590.167 76.1667,589.5 77.5,589.5 Z"/></g>
<g><path style="opacity:0.503" fill="#ea3d15" d="M 419.5,589.5 C 419.557,590.609 419.89,591.609 420.5,592.5C 420.666,601.839 420.5,611.173 420,620.5C 419.744,624.74 417.578,626.74 413.5,626.5C 411.052,625.527 408.385,625.194 405.5,625.5C 405.5,625.167 405.5,624.833 405.5,624.5C 407.735,624.795 409.735,624.461 411.5,623.5C 413.5,623.5 415.5,623.5 417.5,623.5C 416.856,611.784 417.522,600.451 419.5,589.5 Z"/></g>
<g><path style="opacity:1" fill="#eb462a" d="M 314.5,598.5 C 310.265,599.436 305.931,599.769 301.5,599.5C 301.5,601.5 301.5,603.5 301.5,605.5C 299.824,604.817 299.157,603.483 299.5,601.5C 299.634,599.708 299.301,598.042 298.5,596.5C 298.611,595.883 298.944,595.383 299.5,595C 303.5,594.333 307.5,594.333 311.5,595C 312.71,596.039 313.71,597.206 314.5,598.5 Z"/></g>
<g><path style="opacity:1" fill="#839291" d="M 75.5,591.5 C 76.7348,591.721 77.7348,592.388 78.5,593.5C 79.1667,596.167 79.8333,598.833 80.5,601.5C 82.7678,599.09 83.1011,596.423 81.5,593.5C 83.4023,596.337 84.069,599.671 83.5,603.5C 81.5,603.5 79.5,603.5 77.5,603.5C 77.4657,599.37 76.799,595.37 75.5,591.5 Z"/></g>
<g><path style="opacity:1" fill="#5db1bd" d="M 339.5,593.5 C 342.554,593.354 344.554,594.687 345.5,597.5C 345.799,599.604 345.466,601.604 344.5,603.5C 343.943,601.668 342.943,600.335 341.5,599.5C 341.386,597.282 340.72,595.282 339.5,593.5 Z"/></g>
<g><path style="opacity:1" fill="#958582" d="M 345.5,597.5 C 347.369,599.635 348.036,602.302 347.5,605.5C 345.718,606.72 343.718,607.386 341.5,607.5C 341.5,604.833 341.5,602.167 341.5,599.5C 342.943,600.335 343.943,601.668 344.5,603.5C 345.466,601.604 345.799,599.604 345.5,597.5 Z"/></g>
<g><path style="opacity:0.702" fill="#ea4725" d="M 560.5,590.5 C 561.117,590.611 561.617,590.944 562,591.5C 562.241,594.289 562.908,596.956 564,599.5C 571.33,609.882 579.497,610.882 588.5,602.5C 589.344,604.759 591.011,605.759 593.5,605.5C 593.208,609.299 591.208,611.799 587.5,613C 569.071,616.386 560.071,608.886 560.5,590.5 Z"/></g>
<g><path style="opacity:0.667" fill="#b06c34" d="M 538.5,573.5 C 538.848,581.057 539.848,588.39 541.5,595.5C 541.546,600.353 542.546,605.02 544.5,609.5C 547.27,611.601 549.27,614.268 550.5,617.5C 554.78,621.474 559.78,624.14 565.5,625.5C 567.333,625.415 568.666,624.748 569.5,623.5C 575.478,624.995 581.478,625.995 587.5,626.5C 554.104,632.631 537.437,618.465 537.5,584C 537.501,580.317 537.835,576.817 538.5,573.5 Z"/></g>
<g><path style="opacity:0.524" fill="#eb4629" d="M 53.5,587.5 C 53.5,588.167 53.5,588.833 53.5,589.5C 53.8333,590.167 54.1667,590.833 54.5,591.5C 54.3341,596.511 54.5007,601.511 55,606.5C 55.5,607 56,607.5 56.5,608C 60.8333,608.667 65.1667,608.667 69.5,608C 71.3231,607.003 72.9897,605.836 74.5,604.5C 76.0304,607.021 78.3637,608.021 81.5,607.5C 80.344,610.152 78.344,611.986 75.5,613C 67.5069,613.5 59.5069,613.666 51.5,613.5C 50.8636,604.435 51.5302,595.769 53.5,587.5 Z"/></g>
<g><path style="opacity:1" fill="#c86143" d="M 512.5,592.5 C 513.482,595.962 513.815,599.629 513.5,603.5C 514.833,603.5 516.167,603.5 517.5,603.5C 516.167,606.167 514.167,608.167 511.5,609.5C 509.5,609.5 507.5,609.5 505.5,609.5C 505.5,608.5 505.5,607.5 505.5,606.5C 507.619,605.014 509.119,603.014 510,600.5C 510.098,597.478 510.932,594.811 512.5,592.5 Z"/></g>
<g><path style="opacity:0.841" fill="#ef452a" d="M 194.5,606.5 C 195.289,606.783 195.956,607.283 196.5,608C 207.5,608.333 218.5,608.667 229.5,609C 230.337,610.011 230.67,611.178 230.5,612.5C 218.247,613.479 205.913,613.813 193.5,613.5C 193.298,611.05 193.631,608.717 194.5,606.5 Z"/></g>
<g><path style="opacity:0.85" fill="#ed4125" d="M 256.5,606.5 C 257.289,606.783 257.956,607.283 258.5,608C 269.909,608.188 281.242,608.688 292.5,609.5C 292.5,610.167 292.5,610.833 292.5,611.5C 292.5,612.167 292.833,612.5 293.5,612.5C 293.5,613.167 293.833,613.5 294.5,613.5C 294.5,614.167 294.5,614.833 294.5,615.5C 294.664,618.187 294.497,620.854 294,623.5C 292.736,625.607 290.903,626.607 288.5,626.5C 287.609,625.89 286.609,625.557 285.5,625.5C 285.5,624.833 285.5,624.167 285.5,623.5C 287.5,623.5 289.5,623.5 291.5,623.5C 291.5,620.167 291.5,616.833 291.5,613.5C 279.5,613.5 267.5,613.5 255.5,613.5C 255.298,611.05 255.631,608.717 256.5,606.5 Z"/></g>
<g><path style="opacity:0.944" fill="#ee452a" d="M 314.5,600.5 C 315.85,601.483 316.85,602.816 317.5,604.5C 324.183,608.862 331.183,609.529 338.5,606.5C 339.391,607.11 340.391,607.443 341.5,607.5C 343.718,607.386 345.718,606.72 347.5,605.5C 347.5,606.833 347.5,608.167 347.5,609.5C 344.327,611.125 340.994,612.625 337.5,614C 332.096,614.772 326.762,614.439 321.5,613C 316.105,610.366 313.772,606.199 314.5,600.5 Z"/></g>
<g><path style="opacity:1" fill="#ed472a" d="M 482.5,594.5 C 483.854,597.93 485.854,601.097 488.5,604C 492.069,605.799 495.736,607.299 499.5,608.5C 501.693,608.281 503.693,607.615 505.5,606.5C 505.5,607.5 505.5,608.5 505.5,609.5C 507.5,609.5 509.5,609.5 511.5,609.5C 510.878,611.335 509.544,612.502 507.5,613C 491.656,616.273 483.323,610.106 482.5,594.5 Z"/></g>
<g><path style="opacity:1" fill="#77a09d" d="M 545.5,557.5 C 547.176,558.183 547.843,559.517 547.5,561.5C 547.5,563.5 547.5,565.5 547.5,567.5C 546.173,571.783 545.507,576.449 545.5,581.5C 545.507,586.551 546.173,591.217 547.5,595.5C 547.187,598.247 547.52,600.914 548.5,603.5C 552.649,613.32 559.649,619.986 569.5,623.5C 568.666,624.748 567.333,625.415 565.5,625.5C 559.78,624.14 554.78,621.474 550.5,617.5C 549.27,614.268 547.27,611.601 544.5,609.5C 542.546,605.02 541.546,600.353 541.5,595.5C 541.81,584.419 541.477,573.419 540.5,562.5C 540.5,562.167 540.5,561.833 540.5,561.5C 541.5,561.5 542.5,561.5 543.5,561.5C 543.157,559.517 543.824,558.183 545.5,557.5 Z"/></g>
<g><path style="opacity:1" fill="#f04328" d="M 127.5,587.5 C 127.782,588.778 128.449,589.778 129.5,590.5C 128.545,596.409 128.211,602.409 128.5,608.5C 140.838,608.333 153.171,608.5 165.5,609C 166.71,610.039 167.71,611.206 168.5,612.5C 154.245,613.482 139.912,613.816 125.5,613.5C 124.864,604.435 125.53,595.769 127.5,587.5 Z"/></g>
<g><path style="opacity:1" fill="#72a2a0" d="M 299.5,601.5 C 299.157,603.483 299.824,604.817 301.5,605.5C 301.201,607.604 301.534,609.604 302.5,611.5C 305.5,614.5 308.5,617.5 311.5,620.5C 315.129,622.014 318.462,623.68 321.5,625.5C 318.753,625.813 316.086,625.48 313.5,624.5C 309.686,622.256 305.686,620.589 301.5,619.5C 300.356,615.989 298.689,612.656 296.5,609.5C 295.52,606.914 295.187,604.247 295.5,601.5C 296.833,601.5 298.167,601.5 299.5,601.5 Z"/></g>
<g><path style="opacity:1" fill="#ec4526" d="M 643.5,553.5 C 643.782,554.778 644.449,555.778 645.5,556.5C 644.515,573.423 644.182,590.423 644.5,607.5C 650.83,607.789 656.83,606.789 662.5,604.5C 664.607,605.468 666.941,605.802 669.5,605.5C 669.5,606.833 669.5,608.167 669.5,609.5C 666.551,609.931 663.884,611.098 661.5,613C 654.842,613.5 648.175,613.666 641.5,613.5C 640.845,593.139 641.512,573.139 643.5,553.5 Z"/></g>
<g><path style="opacity:0.776" fill="#aa6e3a" d="M 298.5,596.5 C 299.301,598.042 299.634,599.708 299.5,601.5C 298.167,601.5 296.833,601.5 295.5,601.5C 295.187,604.247 295.52,606.914 296.5,609.5C 298.689,612.656 300.356,615.989 301.5,619.5C 305.686,620.589 309.686,622.256 313.5,624.5C 316.086,625.48 318.753,625.813 321.5,625.5C 327.923,625.209 334.256,625.542 340.5,626.5C 322.962,632.181 307.629,628.514 294.5,615.5C 294.5,614.833 294.5,614.167 294.5,613.5C 293.833,613.5 293.5,613.167 293.5,612.5C 292.833,612.5 292.5,612.167 292.5,611.5C 292.5,610.833 292.5,610.167 292.5,609.5C 291.221,605.479 291.388,601.479 293,597.5C 294.699,596.594 296.533,596.261 298.5,596.5 Z"/></g>
<g><path style="opacity:1" fill="#6da8a9" d="M 467.5,591.5 C 467.187,594.247 467.52,596.914 468.5,599.5C 470.99,611.645 477.99,619.645 489.5,623.5C 489.03,624.693 488.03,625.36 486.5,625.5C 478.05,624.037 472.383,619.37 469.5,611.5C 468.167,611.5 466.833,611.5 465.5,611.5C 465.243,608.068 464.576,604.734 463.5,601.5C 463.168,590.147 463.501,578.814 464.5,567.5C 464.852,575.875 465.852,583.875 467.5,591.5 Z"/></g>
<g><path style="opacity:1" fill="#ce4f3d" d="M 179.5,623.5 C 194.837,623.333 210.17,623.5 225.5,624C 224.584,624.278 223.918,624.778 223.5,625.5C 208.833,625.5 194.167,625.5 179.5,625.5C 179.5,624.833 179.5,624.167 179.5,623.5 Z"/></g>
<g><path style="opacity:1" fill="#ce4f3d" d="M 241.5,623.5 C 256.167,623.5 270.833,623.5 285.5,623.5C 285.5,624.167 285.5,624.833 285.5,625.5C 270.833,625.5 256.167,625.5 241.5,625.5C 241.5,624.833 241.5,624.167 241.5,623.5 Z"/></g>
<g><path style="opacity:0.513" fill="#b1662c" d="M 30.5,623.5 C 31.5,623.5 32.5,623.5 33.5,623.5C 34.1834,625.176 35.5168,625.843 37.5,625.5C 49.6783,625.828 61.6783,625.495 73.5,624.5C 73.5,624.167 73.5,623.833 73.5,623.5C 75.9496,623.298 78.283,623.631 80.5,624.5C 78.0757,625.983 75.409,627.15 72.5,628C 59.5,628.667 46.5,628.667 33.5,628C 31.8588,626.871 30.8588,625.371 30.5,623.5 Z"/></g>
<g><path style="opacity:0.511" fill="#af682c" d="M 104.5,623.5 C 105.5,623.5 106.5,623.5 107.5,623.5C 108.183,625.176 109.517,625.843 111.5,625.5C 128.167,625.5 144.833,625.5 161.5,625.5C 162.167,625.5 162.5,625.833 162.5,626.5C 162.389,627.117 162.056,627.617 161.5,628C 143.5,628.667 125.5,628.667 107.5,628C 105.859,626.871 104.859,625.371 104.5,623.5 Z"/></g>
<g><path style="opacity:0.367" fill="#b4652b" d="M 620.5,623.5 C 621.5,623.5 622.5,623.5 623.5,623.5C 624.183,625.176 625.517,625.843 627.5,625.5C 638.346,625.828 649.013,625.494 659.5,624.5C 659.5,624.167 659.5,623.833 659.5,623.5C 661.95,623.298 664.283,623.631 666.5,624.5C 666.389,625.117 666.056,625.617 665.5,626C 651.649,628.507 637.649,629.173 623.5,628C 621.859,626.871 620.859,625.371 620.5,623.5 Z"/></g>
<g><path style="opacity:0.333" fill="#b46629" d="M 396.5,623.5 C 397.5,623.5 398.5,623.5 399.5,623.5C 400.183,625.176 401.517,625.843 403.5,625.5C 404.167,625.5 404.833,625.5 405.5,625.5C 408.385,625.194 411.052,625.527 413.5,626.5C 413.389,627.117 413.056,627.617 412.5,628C 408.167,628.667 403.833,628.667 399.5,628C 397.859,626.871 396.859,625.371 396.5,623.5 Z"/></g>
</svg>
